<?xml version="1.0" encoding="UTF-8" standalone="no"?>
<svg
   width="621.237"
   height="644.64"
   viewBox="0 0 164.369 170.561"
   version="1.1"
   id="svg67"
   xmlns="http://www.w3.org/2000/svg"
   xmlns:svg="http://www.w3.org/2000/svg">
  <defs
     id="defs67" />
  <path
     d="M115.703 87.907a113.785 122.626 0 0 0-109.738 90.76h219.571a113.785 122.626 0 0 0-109.833-90.76Z"
     style="opacity:1;fill:#8729a3;fill-opacity:1;stroke:#025;stroke-width:20;stroke-linecap:round;stroke-linejoin:miter;stroke-miterlimit:15;stroke-dasharray:none;stroke-dashoffset:0;stroke-opacity:1;paint-order:stroke fill markers"
     transform="matrix(.63349 0 0 .67413 9.482 -25.139)"
     id="path1" />
  <path
     d="M118.773 103.45a101.046 86.959 0 0 0-99.29 71.16h198.6a101.046 86.959 0 0 0-99.31-71.16z"
     style="opacity:1;fill:#eb3297;fill-opacity:1;stroke:#025;stroke-width:6.43253;stroke-linecap:round;stroke-linejoin:miter;stroke-miterlimit:15;stroke-dasharray:none;stroke-dashoffset:0;stroke-opacity:1;paint-order:stroke fill markers"
     transform="matrix(.63349 0 0 .67413 9.482 -25.139)"
     id="path2" />
  <path
     d="M121.396 115.576a93.836 88.96 0 0 0-92.175 72.602h184.353a93.836 88.96 0 0 0-92.178-72.602z"
     style="opacity:1;fill:#ff80b2;fill-opacity:1;stroke:#025;stroke-width:5.51818;stroke-linecap:round;stroke-linejoin:miter;stroke-miterlimit:15;stroke-dasharray:none;stroke-dashoffset:0;stroke-opacity:1;paint-order:stroke fill markers"
     transform="matrix(.63349 0 0 .67413 9.482 -25.139)"
     id="path3" />
  <g
     style="stroke-width:1.3058"
     id="g29">
    <path
       d="M68.01 120.054s50.735-33.353 57.596 8.27c18.867 2.576 11.474 21.7 6.031 36.82 0 0 47.625 17.06 47.625 30.28-17.88 30.97-42.695-9.027-57.13-14.833z"
       style="fill:#4d4d4d;stroke:gray;stroke-width:3.9174;stroke-linecap:butt;stroke-linejoin:miter;stroke-miterlimit:15;stroke-dasharray:none;stroke-opacity:1"
       transform="matrix(.46903 0 0 .4697 64.915 -49.526)"
       id="path4" />
    <path
       d="M124.478 171.18c6.602 13.461 18.041 27.07 6.14 63.64-1.537-5.283-1.721-11.787-4.013-17.967 1.141 12.098-3.799 32.705-7.92 49.53-1.474-7.468 1.35-30.155-1.73-30.875.85 7.865-4.424 23.143-6.002 28.52l-5.788-16.193.687-71.32z"
       style="fill:#0193cf;fill-opacity:1;stroke:#0193cf;stroke-width:3.9174;stroke-linecap:butt;stroke-linejoin:miter;stroke-miterlimit:15;stroke-dasharray:none;stroke-opacity:1"
       transform="matrix(.46903 0 0 .4697 64.915 -49.526)"
       id="path5" />
    <path
       d="M125.606 128.324c-9.338-28.03-56.485-7.153-49.822 2.366"
       style="fill:none;stroke:gray;stroke-width:1.9587;stroke-linecap:butt;stroke-linejoin:miter;stroke-miterlimit:15;stroke-dasharray:none;stroke-opacity:1"
       transform="matrix(.46903 0 0 .4697 64.915 -49.526)"
       id="path6" />
    <path
       d="M87.907 286c-.276-.139 14.315-17.926 34.396-18.332 32.199-.652 36.43 25.546 36.191 25.891-2.915-3.894-8.912-10.979-15.024-13.04 8.203 7.455 11.488 17.136 10.016 26.08-2.796-6.382-6.482-10.44-12.038-14.025 5.167 7.417 8.387 16.897 7.009 23.97l-17.272-.495c0-3.303-6.1-15.39-16.914-16.253-7.517-.6-11.717 15.97-11.717 15.97l-7.087-.284z"
       style="fill:#0193cf;fill-opacity:1;stroke:#6aabd9;stroke-width:3.9174;stroke-linecap:butt;stroke-linejoin:miter;stroke-miterlimit:15;stroke-dasharray:none;stroke-opacity:1"
       transform="matrix(.46903 0 0 .4697 64.915 -49.526)"
       id="path7" />
    <path
       d="M434.371 1112.106c-18.901.27-37.815 13.677-55.799 42.556l9.033 38.781s15.876-62.626 44.286-60.357c40.868 3.264 63.927 48.949 63.927 61.43l40.61.84c-16.22-35.842-60.473-83.843-102.057-83.25z"
       style="fill:#f37737;fill-opacity:1;stroke:none;stroke-width:1.3058px;stroke-linecap:butt;stroke-linejoin:miter;stroke-opacity:1"
       transform="matrix(.1241 0 0 .12428 64.915 -49.526)"
       id="path8" />
    <path
       d="M148.457 316.544c-13.97-32.772-44.523-33.668-49.476-17.38l1.183 6.34c3.428-5.489 17.06-26.006 41.766 10.767z"
       style="fill:#fff697;fill-opacity:1;stroke:none;stroke-width:.345493px;stroke-linecap:butt;stroke-linejoin:miter;stroke-opacity:1"
       transform="matrix(.46903 0 0 .4697 64.915 -49.526)"
       id="path9" />
    <path
       transform="matrix(.1241 0 0 .12428 64.915 -49.526)"
       d="M467.875 1011.615c-1.85-.01-3.725 0-5.627.043-44.752.905-82.278 24.647-105.336 44.09l5.733 26.365c53.213-57.494 127.509-48.823 179.634-21.855l-.03-.03c10.54 3.555 20.975 11.072 30.269 19.583 11.94 9.618 21.156 19.927 26.515 29.705.892-1.285-14.593-97.25-131.158-97.9z"
       style="fill:#69207f;fill-opacity:1;stroke:none;stroke-width:1.3058px;stroke-linecap:butt;stroke-linejoin:miter;stroke-opacity:1"
       id="path10" />
    <path
       d="M125.606 128.324c-4.818-8.676-23.169 18.833-23.741 20.131"
       style="fill:none;stroke:gray;stroke-width:1.9587;stroke-linecap:butt;stroke-linejoin:miter;stroke-miterlimit:15;stroke-dasharray:none;stroke-opacity:1"
       transform="matrix(.46903 0 0 .4697 64.915 -49.526)"
       id="path11" />
    <path
       transform="matrix(.1241 0 0 .12428 64.915 -49.526)"
       d="m443.572 682.877-45.24 164.62-.86 89.202 21.88 61.203c37.9-108.118 39.381-248.278 24.22-315.025ZM438.209 1067.135c-25.926-.275-49.172 9.344-70.008 24.07 4.658.443 1.996 41.667 5.901 39.493 27.256-51.431 116.113-59.905 186.996 65.689 5.028-25.812-3.013-52.954-22.474-82.918-28.184-43.396-70.092-46.013-100.415-46.334z"
       style="fill:#7cc041;fill-opacity:1;stroke:none;stroke-width:1.3058px;stroke-linecap:butt;stroke-linejoin:miter;stroke-opacity:1"
       id="path12" />
    <path
       d="M68.536 162.685s-5.816 22.904-28.915 18.71c-3.533-.642-3.555 10.577-2.389 14.72 5.383 15.7 31.187 22.147 42.454 18.92 0 0 1.29 4.687-.189 10.205-1.478 5.518-22.3 44.034-35.152 68.225-12.85 24.19-13.796 22.49-13.796 22.49l72.005-.19s-7.182-22.49-.945-51.216c6.236-28.726 17.576-75.784 17.576-75.784 7.668-12.702 20.993-43.368 12.85-61.232-3.383 7.5-14.93 9.246-19.276 20.6l-11.906-8.127H77.607l-10.205 8.316z"
       style="fill:#9dd8f6;fill-opacity:1;stroke:#6aabd9;stroke-width:3.9174;stroke-linecap:butt;stroke-linejoin:miter;stroke-miterlimit:15;stroke-dasharray:none;stroke-opacity:1"
       transform="matrix(.46903 0 0 .4697 64.915 -49.526)"
       id="path13" />
    <path
       d="m60.67 258.647 15.1 21.515s4.544 7.75 13.899 6.815c9.354-.935 14.299-3.207 13.23-8.82-1.07-5.612-9.622-19.243-12.696-22.05-3.073-2.806-28.865-21.38-37.417-20.044-8.553 1.336-9.915 8.85-8.712 12.457 1.203 3.609 16.596 10.127 16.596 10.127z"
       style="fill:#9dd8f6;fill-opacity:1;stroke:#6aabd9;stroke-width:3.9174;stroke-linecap:butt;stroke-linejoin:miter;stroke-miterlimit:15;stroke-dasharray:none;stroke-opacity:1"
       transform="matrix(.46903 0 0 .4697 64.915 -49.526)"
       id="path14" />
    <path
       d="M105.165 247.835c-3.591-4.242-25.118-17.92-31.399-17.92-15.538 0-33.715 20.104-40.49 37.953-2.23 5.873-6.816 19.243 2.27 18.708 9.088-.534 20.982-6.681 23.12-11.492 2.138-4.811 6.147-27.262 13.096-28.865 6.949-1.604 24.543 19.624 29.827 17.901 8.888-2.899 11.583-6.826 3.576-16.285z"
       style="fill:#9dd8f6;fill-opacity:1;stroke:#6aabd9;stroke-width:3.9174;stroke-linecap:butt;stroke-linejoin:miter;stroke-miterlimit:15;stroke-dasharray:none;stroke-opacity:1"
       transform="matrix(.46903 0 0 .4697 64.915 -49.526)"
       id="path15" />
    <path
       transform="matrix(.1241 0 0 .12428 64.915 -49.526)"
       d="M470.469 646.979c-1.49 15.115-3.533 20.186-8.865 35.568 53.318 21.45 144.112 166.33 211.289 63.605-41.578 50.391-202.424-99.173-202.424-99.173z"
       style="fill:#000;stroke:gray;stroke-width:14.8059;stroke-linecap:butt;stroke-linejoin:miter;stroke-miterlimit:15;stroke-dasharray:none;stroke-opacity:1"
       id="path16" />
    <path
       transform="matrix(.1241 0 0 .12428 64.915 -49.526)"
       d="m470.469 646.979-8.865 35.568c-11.142 30.896 3.368 56.653 12.783 119.244 0 0 1.757 8.485 4.361 20.924-.073-1.047-.144-2.096-.24-3.111 8.661 23.354 9.356 47.936 15.164 67.902 44.984-138.216 1.75-189.649-23.203-240.527z"
       style="fill:#69207f;fill-opacity:1;stroke:none;stroke-width:1.3058px;stroke-linecap:butt;stroke-linejoin:miter;stroke-opacity:1"
       id="path17" />
    <path
       d="M126.151 197.308c1.103-6.463 4.395-14.533.267-22.45-4.798-9.203-14.772-21.428-14.772-21.428l-73.16-3.963s-11.756 44.7 20.313 28.064c4.846 20.634 19.49 24.577 29.987 22.88 13.245-2.141 17.066-23.896 17.066-23.896s8.98 2.459 11.947 5.425c2.564 2.564 1.002 15.569 1.002 15.569 1.276 6.598 6.9 2.439 7.35-.2z"
       style="fill:#000;stroke:#000;stroke-width:1.9587;stroke-linecap:butt;stroke-linejoin:miter;stroke-miterlimit:15;stroke-dasharray:none;stroke-opacity:1"
       transform="matrix(.46903 0 0 .4697 64.915 -49.526)"
       id="path18" />
    <path
       d="m102.613 155.878-16.472-.898-13.725 39.992c1.098.879 2.113 1.828 4.062 1.976 3.678-5.964 8.248-18.617 12.75-27.208 4.1-7.827 6.095-2.665 7.686-3.11 6.466-1.806 5.699-10.752 5.699-10.752z"
       style="fill:gray;stroke:none;stroke-width:1.9587;stroke-linecap:butt;stroke-linejoin:miter;stroke-miterlimit:15;stroke-dasharray:none;stroke-opacity:1"
       transform="matrix(.46903 0 0 .4697 64.915 -49.526)"
       id="path19" />
    <path
       transform="matrix(.1241 0 0 .12428 64.915 -49.526)"
       d="m187.408 567.188-23.711 112.68c1.705 1.153 3.48 2.184 6.303 2.103 7.597-13.13 16.224-23.617 25.816-31.846 17.62-15.116 18.525-29.094 22.487-41.049 7.839-23.656 30.439-38.017 31.242-38.521z"
       style="fill:gray;stroke:none;stroke-width:7.40296;stroke-linecap:butt;stroke-linejoin:miter;stroke-miterlimit:15;stroke-dasharray:none;stroke-opacity:1"
       id="path20" />
    <g
       style="stroke-width:6.05162;stroke-miterlimit:4;stroke-dasharray:none"
       id="g25">
      <g
         style="stroke:gray;stroke-width:6.05162;stroke-miterlimit:4;stroke-dasharray:none"
         transform="matrix(.0828 .06034 -.08516 .06182 139.062 14.937)"
         id="g24">
        <circle
           style="opacity:1;fill:#000;fill-opacity:1;stroke:gray;stroke-width:6.05162;stroke-linecap:round;stroke-linejoin:miter;stroke-miterlimit:4;stroke-dasharray:none;stroke-dashoffset:0;stroke-opacity:1;paint-order:stroke fill markers"
           cx="-204.797"
           cy="70.009"
           r="10.131"
           id="circle20" />
        <circle
           r="10.131"
           cy="90.789"
           cx="-177.538"
           style="opacity:1;fill:#000;fill-opacity:1;stroke:gray;stroke-width:6.05162;stroke-linecap:round;stroke-linejoin:miter;stroke-miterlimit:4;stroke-dasharray:none;stroke-dashoffset:0;stroke-opacity:1;paint-order:stroke fill markers"
           id="circle21" />
        <circle
           style="opacity:1;fill:#000;fill-opacity:1;stroke:gray;stroke-width:6.05162;stroke-linecap:round;stroke-linejoin:miter;stroke-miterlimit:4;stroke-dasharray:none;stroke-dashoffset:0;stroke-opacity:1;paint-order:stroke fill markers"
           cx="-177.159"
           cy="120.143"
           r="10.131"
           id="circle22" />
        <circle
           r="10.131"
           cy="119.541"
           cx="-205.231"
           style="opacity:1;fill:#000;fill-opacity:1;stroke:gray;stroke-width:6.05162;stroke-linecap:round;stroke-linejoin:miter;stroke-miterlimit:4;stroke-dasharray:none;stroke-dashoffset:0;stroke-opacity:1;paint-order:stroke fill markers"
           id="circle23" />
        <circle
           style="opacity:1;fill:#000;fill-opacity:1;stroke:gray;stroke-width:6.05162;stroke-linecap:round;stroke-linejoin:miter;stroke-miterlimit:4;stroke-dasharray:none;stroke-dashoffset:0;stroke-opacity:1;paint-order:stroke fill markers"
           cx="-234.059"
           cy="123.231"
           r="10.131"
           id="circle24" />
      </g>
    </g>
    <path
       d="M17.42 135.85c9.142-3.66 15.307-2.74 15.307-2.74-11.692 5.042-10.22 12.436-12.694 19.125 4.8-5.103 9.798-8.722 15.308-8.504-12.018 5.532-10.542 22.352-13.702 40.254 23.465-45.916 44.786-23.396 91.187-35.719-20.162-47.501-83.276-45.37-95.407-12.416Z"
       style="fill:#f37737;fill-opacity:1;stroke:#0193cf;stroke-width:3.9174;stroke-linecap:butt;stroke-linejoin:miter;stroke-miterlimit:20.8;stroke-dasharray:none;stroke-opacity:1"
       transform="matrix(.46903 0 0 .4697 64.915 -49.526)"
       id="path25" />
    <path
       transform="matrix(.1241 0 0 .12428 64.915 -49.526)"
       d="M220.764 422.412c-69.604-.134-133.436 32.652-154.928 91.035 28.714-11.493 61.603-12.173 67.863-11.69 95.97-43.836 214.959-37.397 292.729 58.62-40.483-95.378-126.78-137.813-205.664-137.965Z"
       style="fill:#ee4035;fill-opacity:1;stroke:none;stroke-width:1.3058px;stroke-linecap:butt;stroke-linejoin:miter;stroke-opacity:1"
       id="path26" />
    <path
       d="M44.716 188.052a2.198 2.46 88.311 0 0-.41 1.275 2.198 2.46 88.311 0 0 2.522 2.124 2.198 2.46 88.311 0 0 2.394-2.269 2.198 2.46 88.311 0 0-.008-.106 2.198 2.46 88.311 0 1-1.982.994 2.198 2.46 88.311 0 1-2.516-2.018z"
       style="opacity:1;fill:#6aabd9;fill-opacity:1;stroke:none;stroke-width:3.19998;stroke-linecap:round;stroke-linejoin:miter;stroke-miterlimit:4;stroke-dasharray:none;stroke-dashoffset:0;stroke-opacity:1;paint-order:stroke fill markers"
       transform="matrix(.46903 0 0 .4697 64.915 -49.526)"
       id="path27" />
    <path
       transform="matrix(.1241 0 0 .12428 64.915 -49.526)"
       d="M81.785 695.377c88.686-173.54 169.271-88.427 344.643-135-161.348-70.798-300.605 6.573-344.643 135z"
       style="fill:#fff697;fill-opacity:1;stroke:none;stroke-width:1.3058px;stroke-linecap:butt;stroke-linejoin:miter;stroke-opacity:1"
       id="path28" />
    <path
       d="M129.76 139.311c-.203 8.838-4.281 14.124-8.687 19.11 3.833-5.7 7.318-11.65 8.686-19.11z"
       style="fill:#6aabd9;fill-opacity:1;stroke:none;stroke-width:.345493px;stroke-linecap:butt;stroke-linejoin:miter;stroke-opacity:1"
       transform="matrix(.46903 0 0 .4697 64.915 -49.526)"
       id="path29" />
  </g>
  <path
     id="path30"
     style="fill:#002255;fill-opacity:1;stroke:none;stroke-width:0.105421px;stroke-linecap:butt;stroke-linejoin:miter;stroke-opacity:1"
     d="m 57.937556,65.282328 c -1.605264,0.07256 -3.22177,0.546704 -4.509803,1.529106 -4.208053,-1.689064 -8.950976,-1.156708 -13.193511,0.07596 -0.403022,0.168394 -0.834422,0.473727 -1.205612,0.0863 -4.708618,-2.594217 -11.091913,-1.484821 -14.698846,2.486153 -2.738907,-2.548826 -6.67328,-3.126179 -10.276377,-2.98018 -3.231096,0.135082 -6.5369806,0.911634 -9.2459479,2.730583 -3.2367768,2.621503 -3.7906556,8.096919 -0.7684287,11.091831 0.3367797,0.377863 0.7193539,0.712322 1.1286135,1.009241 -1.8398282,1.965083 -2.3434521,4.779672 -2.2675622,7.376811 0.082523,1.93343 1.015861,3.837992 2.6354984,4.925799 l -0.1824178,0.01499 c -1.1194369,1.087423 -2.2013022,2.290232 -3.2209924,3.68298 -3.2024731,4.373508 1.5209885,31.635588 7.3938648,37.965128 0.4550771,0.49027 0.9540773,0.82079 1.4448733,1.07849 0.955926,0.82231 2.047184,1.22661 2.983797,1.38906 2.283852,0.9853 5.31434,0.65715 7.799009,0.23409 -0.159965,0.64765 -0.286499,1.30308 -0.379305,1.96371 -1.594358,11.53383 2.622542,20.69992 9.650574,25.34884 l -0.07906,-0.0527 0.165882,0.11731 c -0.0095,-0.007 -0.01838,-0.0155 -0.02791,-0.0227 1.915028,1.43614 4.044031,2.49852 6.301425,3.11816 2.531234,0.96308 5.233522,1.37419 7.96954,1.11517 5.515429,-0.52227 12.230653,-1.13703 15.931329,-4.12016 0.349246,0.26722 0.696554,0.53694 1.062468,0.77877 -0.02937,-0.0212 -0.0595,-0.0411 -0.0894,-0.061 l 0.161748,0.1142 c -0.0095,-0.007 -0.0189,-0.0146 -0.02842,-0.0217 1.854703,1.39646 3.939854,2.44066 6.188253,3.03702 l -0.485242,-0.16278 c 1.429019,0.58361 2.928868,0.97567 4.460711,1.16582 h 0.0021 l 0.0016,5.2e-4 c 7.067983,0.86968 12.895809,-0.46193 17.376202,-3.57498 0.348187,0.3974 0.735648,0.76528 1.219564,1.0542 0.08202,0.0487 0.15675,0.0731 0.237712,0.11731 0.23283,0.2077 0.466643,0.41725 0.764295,0.59479 0.836336,0.49952 1.69587,0.77087 2.529561,0.95343 3.842491,1.68009 8.690579,0.22214 11.474759,-0.38137 2.62887,-0.57017 3.66178,-3.28657 4.03748,-6.46575 0.90642,0.92856 1.87646,1.79287 2.90318,2.5864 0.5199,0.57678 1.10573,0.98925 1.68569,1.33584 1.18267,0.97657 2.72743,1.61262 3.98683,1.90789 4.641,1.80311 13.48955,1.17904 15.19133,-4.17287 1.99757,-6.28324 0.80359,-18.6057 -0.0351,-27.62364 6.54728,1.46048 14.62321,2.69706 18.86655,3.38894 l 0.91312,0.14883 0.88573,-0.26717 c 5.09131,-1.53562 6.06017,-11.62486 2.53835,-15.80627 2.51642,-2.85032 3.2582,-8.48092 1.71411,-11.85458 5.49955,-1.54646 7.69455,-12.564677 2.79983,-15.683278 l -0.30696,-0.195854 -0.33796,-0.136943 c -0.4093,-0.166155 -0.97386,-0.343175 -1.51361,-0.517797 -0.16589,-0.137846 -0.29882,-0.290899 -0.49196,-0.413929 l -0.30695,-0.195853 -0.33797,-0.136943 c -3.7446,-1.519746 -19.94375,-5.344161 -26.98078,-4.349606 -0.7929,0.113724 -1.57078,0.312998 -2.32079,0.594279 -0.73038,-0.512959 -1.53767,-0.906689 -2.39159,-1.166337 -0.13176,-0.04022 -0.25767,-0.06968 -0.38757,-0.106453 -0.69717,-0.490002 -1.44086,-0.906983 -2.26291,-1.158069 -5.30588,-1.621874 -9.0982,-0.485934 -11.65562,2.422591 -3.13791,-1.558904 -13.434254,-2.156034 -15.599574,1.344621 -0.01535,0.02461 -0.02626,0.05108 -0.04134,0.07596 -1.242995,-1.48535 -2.694838,-2.665481 -4.452442,-3.139343 -0.07541,-0.02037 -0.159168,-0.0455 -0.236161,-0.06666 -0.702459,-0.496087 -1.477711,-0.945186 -2.414323,-1.19786 -2.556635,-0.68923 -8.43175,-2.894656 -11.356414,0.07235 -0.01243,-0.0034 -0.02478,-0.0061 -0.03721,-0.0093 -1.17081,-0.914362 -2.234382,-1.357449 -3.482501,-1.677383 -0.946737,-0.24268 -2.31709,-0.07158 -2.927922,-0.155301 1.914746,-0.801217 3.870775,-2.867165 4.127358,-4.925042 0.683862,-2.24735 0.430293,-5.021696 -1.418519,-6.655926 -0.195436,-0.252736 -0.679755,-0.527346 -1.005623,-0.765328 0.199478,-2.271769 -0.170454,-4.955715 -2.16886,-6.373255 -2.362918,-1.779101 -5.651734,-1.834936 -8.343161,-0.841809 -0.362928,0.338161 -0.58385,-0.396577 -0.937411,-0.460954 -1.2156,-0.794182 -2.672423,-1.192906 -4.122746,-1.136365 z M 30.867887,165.18219 c 0.02381,0.0185 0.04851,0.0357 0.07338,0.0527 z m 31.318506,0.93017 c 0.02011,0.0154 0.04033,0.0296 0.0615,0.0439 z" />
  <g
     style="fill:#0193cf;fill-opacity:1"
     id="g42">
    <path
       style="fill:#0193cf;fill-opacity:1;stroke:none;stroke-width:0.290866px;stroke-linecap:butt;stroke-linejoin:miter;stroke-opacity:1"
       d="m -35.976,286.687 c -15.603,-0.093 -28.496,7.486 -38.937,24.362 -3.426,5.538 10.667,74.237 26.594,88.921 3.845,3.546 17.165,-1.174 25.347,-2.908 11.042,-2.341 -10.765,-28.22 -8.31,-32.827 1.958,-3.675 34.314,-3.39 38.769,-20.927 5.255,-20.69 -13.846,-50.001 -25.457,-53.585 -6.365,-1.965 -12.363,-3.002 -18.006,-3.036 z m 6.955,32.554 a 8.917,8.917 0 0 1 8.404,5.801 8.912,8.912 0 0 1 -1.482,8.776 c 3.024,3.565 13.454,9.062 9.073,10.695 l -8.716,3.25 -8.717,3.251 c -4.407,1.643 -0.096,-9.406 -0.144,-14.109 a 8.912,8.912 0 0 1 -6.715,-5.636 8.912,8.912 0 0 1 5.236,-11.464 8.896,8.896 0 0 1 3.06,-0.564 z"
       transform="matrix(0.36133953,0.0282223,-0.0282223,0.36133953,43.847733,-9.3342199)"
       id="path31" />
    <path
       d="m 12.198,303.38 c -3.794,15.118 15.246,53.85 19.02,75.69 1.02,5.902 28.28,-0.078 29.489,-1.787 10.35,-14.633 7.977,-31.893 10.169,-34.907 2.192,-3.014 9.1,33.914 23.686,35.372 9.652,0.964 20.265,3.243 20.587,-3.162 1.557,-31.047 9.754,-79.91 0.685,-84.103 -6.596,-3.049 -16.639,0.64 -24.838,2.935 -7.145,2 7.016,47.402 -2.518,38.681 -15.17,-13.877 -14.836,-16.502 -20.476,-15.68 -3.847,0.561 -4.333,13.492 -11.79,19.063 -8.36,6.245 -10.847,-32.588 -13.535,-35.632 -5.567,-6.301 -28.731,-3.437 -30.48,3.53 z"
       style="fill:#0193cf;fill-opacity:1;stroke:none;stroke-width:0.221799px;stroke-linecap:butt;stroke-linejoin:miter;stroke-opacity:1"
       transform="matrix(0.39723,0.03104,-0.03104,0.39723,41.26,-26.441)"
       id="path32" />
    <g
       style="fill:#0193cf;fill-opacity:1;stroke:none"
       id="g34">
      <path
         d="m 239.19,366.82 c -5.918,10.12 1.54,41.12 0.27,57.372 -0.344,4.392 22.26,4.926 23.543,3.918 7.1,-33.785 2.128,-46.717 0.85,-58.442 -0.723,-4.939 -21.934,-7.514 -24.662,-2.849 z"
         style="fill:#0193cf;fill-opacity:1;stroke:none;stroke-width:0.171183px;stroke-linecap:butt;stroke-linejoin:miter;stroke-opacity:1"
         transform="matrix(0.39837,0.00796,-0.00732,0.3664,23.499,-29.17)"
         id="path33" />
      <path
         d="m 237.523,347.807 c 3.693,-14.718 9.136,-22.487 24.58,-17.72 7.482,2.31 10.628,12.581 2.582,23.741 -8.384,11.629 -30.854,8.698 -27.162,-6.02 z"
         style="fill:#0193cf;fill-opacity:1;stroke:none;stroke-width:0.187459px;stroke-linecap:butt;stroke-linejoin:miter;stroke-opacity:1"
         transform="matrix(0.39837,0.00796,-0.00732,0.3664,23.499,-29.17)"
         id="path34" />
    </g>
    <path
       style="fill:#0193cf;fill-opacity:1;stroke:none;stroke-width:0.23967px;stroke-linecap:butt;stroke-linejoin:miter;stroke-opacity:1"
       d="m 217.168,360.837 c 5.277,-16.552 0.437,-58.908 -1.567,-83.578 -0.542,-6.667 -29.773,-2.486 -30.835,-0.426 -7.838,15.205 -1.145,35.406 -3.69,38.588 -2.545,3.183 -13.691,-40.345 -28.736,-43.167 -9.957,-1.868 -20.797,-5.281 -21.695,1.837 -4.352,34.504 -17.179,88.336 -8.113,93.756 6.594,3.943 17.366,0.652 26.097,-1.234 7.61,-1.644 -3.128,-53.451 6.024,-42.941 8.492,12.915 16.641,28.326 30.497,38.601 5.237,7.486 29.586,6.192 32.018,-1.436 z"
       transform="matrix(0.36133953,0.0282223,-0.0282223,0.36133953,43.847733,-9.3342199)"
       id="path35" />
    <path
       d="m 264.53,274.953 c -0.708,25.65 -12,87.217 -7.65,90.494 7.785,5.867 56.173,9.333 75.8,10.979 6.033,-2.346 4.553,-25.513 -1.54,-26.917 -10.577,-2.09 -21.81,-6.372 -43.67,-7.232 0.488,-2.732 0.97,-5.634 1.421,-8.756 11.347,1.164 20.74,2.235 40.743,3.784 4.192,0.324 7.58,-20.3 2.4,-23.363 -3.448,-2.04 -22.263,-7.108 -40.757,-8.535 0.069,-2.21 0.114,-4.504 0.136,-6.889 21.743,-3.163 35.441,1.183 46.523,1.042 6.158,-0.258 9.445,-20.76 3.642,-23.85 -11.889,-3.777 -75.076,-13.437 -77.049,-0.757 z"
       style="fill:#0193cf;fill-opacity:1;stroke:none;stroke-width:0.188966px;stroke-linecap:butt;stroke-linejoin:miter;stroke-opacity:1"
       transform="matrix(0.36133953,0.0282223,-0.0282223,0.36133953,43.847733,-9.3342199)"
       id="path36" />
    <path
       d="m 75.461,404.121 c -8.489,9.379 -53.46,-21.901 -58.051,22.872 -1.462,54.205 57.951,15.133 62.484,29.276 5.427,16.937 -14.938,20.426 -39.226,24.655 -26.06,4.537 -54.39,-19.281 -51.856,-61.898 2.34,-39.347 57.96,-60.866 83.684,-35.555 3.309,3.256 7.6,15.53 2.965,20.65 z"
       style="fill:#0193cf;fill-opacity:1;stroke:none;stroke-width:0.615074px;stroke-linecap:butt;stroke-linejoin:miter;stroke-opacity:1"
       transform="matrix(0.36133953,0.0282223,-0.0282223,0.36133953,43.847733,-9.3342199)"
       id="path37" />
    <path
       d="m 274.418,455.619 c 3.958,-16.916 -4.197,-58.76 -8.135,-83.196 -1.064,-6.604 -29.876,-0.137 -30.772,2 -6.619,15.774 1.642,35.386 -0.645,38.759 -2.287,3.373 -16.82,-39.144 -32.041,-40.775 -10.073,-1.079 -21.148,-3.629 -21.484,3.538 -1.625,34.74 -10.179,89.413 -0.715,94.104 6.884,3.412 17.364,-0.716 25.92,-3.283 7.455,-2.237 -7.322,-53.04 2.627,-43.282 9.483,12.207 18.818,26.93 33.439,36.084 5.809,7.051 29.981,3.846 31.806,-3.95 z"
       style="fill:#0193cf;fill-opacity:1;stroke:none;stroke-width:0.23967px;stroke-linecap:butt;stroke-linejoin:miter;stroke-opacity:1"
       transform="matrix(0.36133953,0.0282223,-0.0282223,0.36133953,43.847733,-9.3342199)"
       id="path38" />
    <g
       style="fill:#0193cf;fill-opacity:1"
       id="g41">
      <path
         transform="matrix(0.10084855,0.03070744,-0.03070744,0.10084855,70.738582,8.1475069)"
         d="m 477.418,1047.602 c -85.513,0.442 -192.12,74.565 -197.713,168.623 -8.713,146.517 88.682,228.403 178.277,212.804 173.032,-30.274 197.97,-183.768 109.426,-335.04 -19.096,-32.626 -52.518,-46.581 -89.99,-46.387 z m -40.354,124.931 a 72.984,76.267 0 0 1 72.983,76.268 72.984,76.267 0 0 1 -72.983,76.265 72.984,76.267 0 0 1 -72.984,-76.265 72.984,76.267 0 0 1 72.984,-76.268 z"
         style="fill:#0193cf;fill-opacity:1;stroke:none;stroke-width:2.11463px;stroke-linecap:butt;stroke-linejoin:miter;stroke-opacity:1"
         id="path39" />
      <path
         transform="matrix(0.10084855,0.03070744,-0.03070744,0.10084855,70.738582,8.1475069)"
         d="m 440.346,1226.287 a 22.512,22.512 0 0 0 -22.512,22.514 22.512,22.512 0 0 0 22.512,22.512 22.512,22.512 0 0 0 22.513,-22.512 22.512,22.512 0 0 0 -22.513,-22.514 z m -0.504,6.266 a 13.094,13.094 0 0 1 13.094,13.093 13.094,13.094 0 0 1 -13.094,13.094 13.094,13.094 0 0 1 -13.094,-13.094 13.094,13.094 0 0 1 13.094,-13.093 z"
         style="opacity:1;fill:#0193cf;fill-opacity:1;stroke:none;stroke-width:1.52225;stroke-linecap:round;stroke-linejoin:miter;stroke-miterlimit:20.8;stroke-dasharray:none;stroke-dashoffset:0;stroke-opacity:1;paint-order:stroke fill markers"
         id="path40" />
      <path
         d="m 116.097,420.046 c -1.427,-2.465 -8.345,4.609 -5.884,5.935 l 8.904,4.8 c 0.831,0.448 2.511,-1.173 2.015,-2.03 z"
         style="fill:#0193cf;fill-opacity:1;stroke:none;stroke-width:0.224486px;stroke-linecap:butt;stroke-linejoin:miter;stroke-opacity:1"
         transform="matrix(0.34671756,0.10559208,-0.10559208,0.34671756,78.824561,-16.954624)"
         id="path41" />
    </g>
  </g>
  <g
     style="fill:#002255"
     id="g53">
    <path
       d="m -35.976,286.687 c -15.603,-0.093 -28.496,7.486 -38.937,24.362 -3.426,5.538 10.667,74.237 26.594,88.921 3.845,3.546 17.165,-1.174 25.347,-2.908 11.042,-2.341 -10.765,-28.22 -8.31,-32.827 1.958,-3.675 34.314,-3.39 38.769,-20.927 5.255,-20.69 -13.846,-50.001 -25.457,-53.585 -6.365,-1.965 -12.363,-3.002 -18.006,-3.036 z m 6.955,32.554 a 8.917,8.917 0 0 1 8.404,5.801 8.912,8.912 0 0 1 -1.482,8.776 c 3.024,3.565 13.454,9.062 9.073,10.695 l -8.716,3.25 -8.717,3.251 c -4.407,1.643 -0.096,-9.406 -0.144,-14.109 a 8.912,8.912 0 0 1 -6.715,-5.636 8.912,8.912 0 0 1 5.236,-11.464 8.896,8.896 0 0 1 3.06,-0.564 z"
       style="fill:#002255;stroke:none;stroke-width:0.290866px;stroke-linecap:butt;stroke-linejoin:miter;stroke-opacity:1"
       transform="matrix(0.36133953,0.0282223,-0.0282223,0.36133953,42.199489,-9.8859017)"
       id="path42" />
    <path
       transform="matrix(0.39722968,0.03103246,-0.03103246,0.39722968,39.608369,-26.990596)"
       style="fill:#002255;stroke:none;stroke-width:0.221799px;stroke-linecap:butt;stroke-linejoin:miter;stroke-opacity:1"
       d="m 12.198,303.38 c -3.794,15.118 15.246,53.85 19.02,75.69 1.02,5.902 28.28,-0.078 29.489,-1.787 10.35,-14.633 7.977,-31.893 10.169,-34.907 2.192,-3.014 9.1,33.914 23.686,35.372 9.652,0.964 20.265,3.243 20.587,-3.162 1.557,-31.047 9.754,-79.91 0.685,-84.103 -6.596,-3.049 -16.639,0.64 -24.838,2.935 -7.145,2 7.016,47.402 -2.518,38.681 -15.17,-13.877 -14.836,-16.502 -20.476,-15.68 -3.847,0.561 -4.333,13.492 -11.79,19.063 -8.36,6.245 -10.847,-32.588 -13.535,-35.632 -5.567,-6.301 -28.731,-3.437 -30.48,3.53 z"
       id="path43" />
    <g
       style="fill:#002255;stroke:none"
       id="g45">
      <path
         style="fill:#002255;stroke:none;stroke-width:0.171183px;stroke-linecap:butt;stroke-linejoin:miter;stroke-opacity:1"
         d="m 239.19,366.82 c -5.918,10.12 1.54,41.12 0.27,57.372 -0.344,4.392 22.26,4.926 23.543,3.918 7.1,-33.785 2.128,-46.717 0.85,-58.442 -0.723,-4.939 -21.934,-7.514 -24.662,-2.849 z"
         transform="matrix(0.39837,0.00796,-0.00732,0.3664,21.85,-29.723)"
         id="path44" />
      <path
         style="fill:#002255;stroke:none;stroke-width:0.187459px;stroke-linecap:butt;stroke-linejoin:miter;stroke-opacity:1"
         d="m 237.523,347.807 c 3.693,-14.718 9.136,-22.487 24.58,-17.72 7.482,2.31 10.628,12.581 2.582,23.741 -8.384,11.629 -30.854,8.698 -27.162,-6.02 z"
         transform="matrix(0.39837,0.00796,-0.00732,0.3664,21.85,-29.723)"
         id="path45" />
    </g>
    <path
       d="m 217.168,360.837 c 5.277,-16.552 0.437,-58.908 -1.567,-83.578 -0.542,-6.667 -29.773,-2.486 -30.835,-0.426 -7.838,15.205 -1.145,35.406 -3.69,38.588 -2.545,3.183 -13.691,-40.345 -28.736,-43.167 -9.957,-1.868 -20.797,-5.281 -21.695,1.837 -4.352,34.504 -17.179,88.336 -8.113,93.756 6.594,3.943 17.366,0.652 26.097,-1.234 7.61,-1.644 -3.128,-53.451 6.024,-42.941 8.492,12.915 16.641,28.326 30.497,38.601 5.237,7.486 29.586,6.192 32.018,-1.436 z"
       style="fill:#002255;stroke:none;stroke-width:0.23967px;stroke-linecap:butt;stroke-linejoin:miter;stroke-opacity:1"
       transform="matrix(0.36133953,0.0282223,-0.0282223,0.36133953,42.199489,-9.8859017)"
       id="path46" />
    <path
       style="fill:#002255;stroke:none;stroke-width:0.188966px;stroke-linecap:butt;stroke-linejoin:miter;stroke-opacity:1"
       d="m 264.53,274.953 c -0.708,25.65 -12,87.217 -7.65,90.494 7.785,5.867 56.173,9.333 75.8,10.979 6.033,-2.346 4.553,-25.513 -1.54,-26.917 -10.577,-2.09 -21.81,-6.372 -43.67,-7.232 0.488,-2.732 0.97,-5.634 1.421,-8.756 11.347,1.164 20.74,2.235 40.743,3.784 4.192,0.324 7.58,-20.3 2.4,-23.363 -3.448,-2.04 -22.263,-7.108 -40.757,-8.535 0.069,-2.21 0.114,-4.504 0.136,-6.889 21.743,-3.163 35.441,1.183 46.523,1.042 6.158,-0.258 9.445,-20.76 3.642,-23.85 -11.889,-3.777 -75.076,-13.437 -77.049,-0.757 z"
       transform="matrix(0.36133953,0.0282223,-0.0282223,0.36133953,42.199489,-9.8859017)"
       id="path47" />
    <path
       style="fill:#002255;stroke:none;stroke-width:0.615074px;stroke-linecap:butt;stroke-linejoin:miter;stroke-opacity:1"
       d="m 75.461,404.121 c -8.489,9.379 -53.46,-21.901 -58.051,22.872 -1.462,54.205 57.951,15.133 62.484,29.276 5.427,16.937 -14.938,20.426 -39.226,24.655 -26.06,4.537 -54.39,-19.281 -51.856,-61.898 2.34,-39.347 57.96,-60.866 83.684,-35.555 3.309,3.256 7.6,15.53 2.965,20.65 z"
       transform="matrix(0.36133953,0.0282223,-0.0282223,0.36133953,42.199489,-9.8859017)"
       id="path48" />
    <path
       style="fill:#002255;stroke:none;stroke-width:0.23967px;stroke-linecap:butt;stroke-linejoin:miter;stroke-opacity:1"
       d="m 274.418,455.619 c 3.958,-16.916 -4.197,-58.76 -8.135,-83.196 -1.064,-6.604 -29.876,-0.137 -30.772,2 -6.619,15.774 1.642,35.386 -0.645,38.759 -2.287,3.373 -16.82,-39.144 -32.041,-40.775 -10.073,-1.079 -21.148,-3.629 -21.484,3.538 -1.625,34.74 -10.179,89.413 -0.715,94.104 6.884,3.412 17.364,-0.716 25.92,-3.283 7.455,-2.237 -7.322,-53.04 2.627,-43.282 9.483,12.207 18.818,26.93 33.439,36.084 5.809,7.051 29.981,3.846 31.806,-3.95 z"
       transform="matrix(0.36133953,0.0282223,-0.0282223,0.36133953,42.199489,-9.8859017)"
       id="path49" />
    <g
       style="fill:#002255"
       id="g52">
      <path
         style="fill:#002255;stroke:none;stroke-width:2.11463px;stroke-linecap:butt;stroke-linejoin:miter;stroke-opacity:1"
         d="m 477.418,1047.602 c -85.513,0.442 -192.12,74.565 -197.713,168.623 -8.713,146.517 88.682,228.403 178.277,212.804 173.032,-30.274 197.97,-183.768 109.426,-335.04 -19.096,-32.626 -52.518,-46.581 -89.99,-46.387 z m -40.354,124.931 a 72.984,76.267 0 0 1 72.983,76.268 72.984,76.267 0 0 1 -72.983,76.265 72.984,76.267 0 0 1 -72.984,-76.265 72.984,76.267 0 0 1 72.984,-76.268 z"
         transform="matrix(0.10084855,0.03070744,-0.03070744,0.10084855,69.090246,7.5957403)"
         id="path50" />
      <path
         style="opacity:1;fill:#002255;fill-opacity:1;stroke:none;stroke-width:1.52225;stroke-linecap:round;stroke-linejoin:miter;stroke-miterlimit:20.8;stroke-dasharray:none;stroke-dashoffset:0;stroke-opacity:1;paint-order:stroke fill markers"
         d="m 440.346,1226.287 a 22.512,22.512 0 0 0 -22.512,22.514 22.512,22.512 0 0 0 22.512,22.512 22.512,22.512 0 0 0 22.513,-22.512 22.512,22.512 0 0 0 -22.513,-22.514 z m -0.504,6.266 a 13.094,13.094 0 0 1 13.094,13.093 13.094,13.094 0 0 1 -13.094,13.094 13.094,13.094 0 0 1 -13.094,-13.094 13.094,13.094 0 0 1 13.094,-13.093 z"
         transform="matrix(0.10084855,0.03070744,-0.03070744,0.10084855,69.090246,7.5957403)"
         id="path51" />
      <path
         style="fill:#002255;fill-opacity:1;stroke:none;stroke-width:0.224486px;stroke-linecap:butt;stroke-linejoin:miter;stroke-opacity:1"
         d="m 116.097,420.046 c -1.427,-2.465 -8.345,4.609 -5.884,5.935 l 8.904,4.8 c 0.831,0.448 2.511,-1.173 2.015,-2.03 z"
         transform="matrix(0.34671756,0.10559208,-0.10559208,0.34671756,77.17595,-17.50653)"
         id="path52" />
    </g>
  </g>
  <g
     style="fill:#ffffff"
     id="g64">
    <path
       style="fill:#ffffff;stroke:none;stroke-width:0.290866px;stroke-linecap:butt;stroke-linejoin:miter;stroke-opacity:1"
       d="m -35.976,286.687 c -15.603,-0.093 -28.496,7.486 -38.937,24.362 -3.426,5.538 10.667,74.237 26.594,88.921 3.845,3.546 17.165,-1.174 25.347,-2.908 11.042,-2.341 -10.765,-28.22 -8.31,-32.827 1.958,-3.675 34.314,-3.39 38.769,-20.927 5.255,-20.69 -13.846,-50.001 -25.457,-53.585 -6.365,-1.965 -12.363,-3.002 -18.006,-3.036 z m 6.955,32.554 a 8.917,8.917 0 0 1 8.404,5.801 8.912,8.912 0 0 1 -1.482,8.776 c 3.024,3.565 13.454,9.062 9.073,10.695 l -8.716,3.25 -8.717,3.251 c -4.407,1.643 -0.096,-9.406 -0.144,-14.109 a 8.912,8.912 0 0 1 -6.715,-5.636 8.912,8.912 0 0 1 5.236,-11.464 8.896,8.896 0 0 1 3.06,-0.564 z"
       transform="matrix(0.36133953,0.0282223,-0.0282223,0.36133953,41.198012,-10.59836)"
       id="path53" />
    <path
       d="m 12.198,303.38 c -3.794,15.118 15.246,53.85 19.02,75.69 1.02,5.902 28.28,-0.078 29.489,-1.787 10.35,-14.633 7.977,-31.893 10.169,-34.907 2.192,-3.014 9.1,33.914 23.686,35.372 9.652,0.964 20.265,3.243 20.587,-3.162 1.557,-31.047 9.754,-79.91 0.685,-84.103 -6.596,-3.049 -16.639,0.64 -24.838,2.935 -7.145,2 7.016,47.402 -2.518,38.681 -15.17,-13.877 -14.836,-16.502 -20.476,-15.68 -3.847,0.561 -4.333,13.492 -11.79,19.063 -8.36,6.245 -10.847,-32.588 -13.535,-35.632 -5.567,-6.301 -28.731,-3.437 -30.48,3.53 z"
       style="fill:#ffffff;stroke:none;stroke-width:0.221799px;stroke-linecap:butt;stroke-linejoin:miter;stroke-opacity:1"
       transform="matrix(0.39722968,0.03103246,-0.03103246,0.39722968,38.606681,-27.703253)"
       id="path54" />
    <g
       style="fill:#ffffff;stroke:none"
       id="g56">
      <path
         d="m 239.19,366.82 c -5.918,10.12 1.54,41.12 0.27,57.372 -0.344,4.392 22.26,4.926 23.543,3.918 7.1,-33.785 2.128,-46.717 0.85,-58.442 -0.723,-4.939 -21.934,-7.514 -24.662,-2.849 z"
         style="fill:#ffffff;stroke:none;stroke-width:0.171183px;stroke-linecap:butt;stroke-linejoin:miter;stroke-opacity:1"
         transform="matrix(0.39837,0.00796,-0.00732,0.3664,20.848,-30.435)"
         id="path55" />
      <path
         d="m 237.523,347.807 c 3.693,-14.718 9.136,-22.487 24.58,-17.72 7.482,2.31 10.628,12.581 2.582,23.741 -8.384,11.629 -30.854,8.698 -27.162,-6.02 z"
         style="fill:#ffffff;stroke:none;stroke-width:0.187459px;stroke-linecap:butt;stroke-linejoin:miter;stroke-opacity:1"
         transform="matrix(0.39837,0.00796,-0.00732,0.3664,20.848,-30.435)"
         id="path56" />
    </g>
    <path
       style="fill:#ffffff;stroke:none;stroke-width:0.23967px;stroke-linecap:butt;stroke-linejoin:miter;stroke-opacity:1"
       d="m 217.168,360.837 c 5.277,-16.552 0.437,-58.908 -1.567,-83.578 -0.542,-6.667 -29.773,-2.486 -30.835,-0.426 -7.838,15.205 -1.145,35.406 -3.69,38.588 -2.545,3.183 -13.691,-40.345 -28.736,-43.167 -9.957,-1.868 -20.797,-5.281 -21.695,1.837 -4.352,34.504 -17.179,88.336 -8.113,93.756 6.594,3.943 17.366,0.652 26.097,-1.234 7.61,-1.644 -3.128,-53.451 6.024,-42.941 8.492,12.915 16.641,28.326 30.497,38.601 5.237,7.486 29.586,6.192 32.018,-1.436 z"
       transform="matrix(0.36133953,0.0282223,-0.0282223,0.36133953,41.198012,-10.59836)"
       id="path57" />
    <path
       d="m 264.53,274.953 c -0.708,25.65 -12,87.217 -7.65,90.494 7.785,5.867 56.173,9.333 75.8,10.979 6.033,-2.346 4.553,-25.513 -1.54,-26.917 -10.577,-2.09 -21.81,-6.372 -43.67,-7.232 0.488,-2.732 0.97,-5.634 1.421,-8.756 11.347,1.164 20.74,2.235 40.743,3.784 4.192,0.324 7.58,-20.3 2.4,-23.363 -3.448,-2.04 -22.263,-7.108 -40.757,-8.535 0.069,-2.21 0.114,-4.504 0.136,-6.889 21.743,-3.163 35.441,1.183 46.523,1.042 6.158,-0.258 9.445,-20.76 3.642,-23.85 -11.889,-3.777 -75.076,-13.437 -77.049,-0.757 z"
       style="fill:#ffffff;stroke:none;stroke-width:0.188966px;stroke-linecap:butt;stroke-linejoin:miter;stroke-opacity:1"
       transform="matrix(0.36133953,0.0282223,-0.0282223,0.36133953,41.198012,-10.59836)"
       id="path58" />
    <path
       d="m 75.461,404.121 c -8.489,9.379 -53.46,-21.901 -58.051,22.872 -1.462,54.205 57.951,15.133 62.484,29.276 5.427,16.937 -14.938,20.426 -39.226,24.655 -26.06,4.537 -54.39,-19.281 -51.856,-61.898 2.34,-39.347 57.96,-60.866 83.684,-35.555 3.309,3.256 7.6,15.53 2.965,20.65 z"
       style="fill:#ffffff;stroke:none;stroke-width:0.615074px;stroke-linecap:butt;stroke-linejoin:miter;stroke-opacity:1"
       transform="matrix(0.36133953,0.0282223,-0.0282223,0.36133953,41.198012,-10.59836)"
       id="path59" />
    <path
       d="m 274.418,455.619 c 3.958,-16.916 -4.197,-58.76 -8.135,-83.196 -1.064,-6.604 -29.876,-0.137 -30.772,2 -6.619,15.774 1.642,35.386 -0.645,38.759 -2.287,3.373 -16.82,-39.144 -32.041,-40.775 -10.073,-1.079 -21.148,-3.629 -21.484,3.538 -1.625,34.74 -10.179,89.413 -0.715,94.104 6.884,3.412 17.364,-0.716 25.92,-3.283 7.455,-2.237 -7.322,-53.04 2.627,-43.282 9.483,12.207 18.818,26.93 33.439,36.084 5.809,7.051 29.981,3.846 31.806,-3.95 z"
       style="fill:#ffffff;stroke:none;stroke-width:0.23967px;stroke-linecap:butt;stroke-linejoin:miter;stroke-opacity:1"
       transform="matrix(0.36133953,0.0282223,-0.0282223,0.36133953,41.198012,-10.59836)"
       id="path60" />
    <g
       style="fill:#ffffff"
       id="g63">
      <path
         transform="matrix(0.10084855,0.03070744,-0.03070744,0.10084855,68.088704,6.8833113)"
         d="m 477.418,1047.602 c -85.513,0.442 -192.12,74.565 -197.713,168.623 -8.713,146.517 88.682,228.403 178.277,212.804 173.032,-30.274 197.97,-183.768 109.426,-335.04 -19.096,-32.626 -52.518,-46.581 -89.99,-46.387 z m -40.354,124.931 a 72.984,76.267 0 0 1 72.983,76.268 72.984,76.267 0 0 1 -72.983,76.265 72.984,76.267 0 0 1 -72.984,-76.265 72.984,76.267 0 0 1 72.984,-76.268 z"
         style="fill:#ffffff;stroke:none;stroke-width:2.11463px;stroke-linecap:butt;stroke-linejoin:miter;stroke-opacity:1"
         id="path61" />
      <path
         transform="matrix(0.10084855,0.03070744,-0.03070744,0.10084855,68.088704,6.8833113)"
         d="m 440.346,1226.287 a 22.512,22.512 0 0 0 -22.512,22.514 22.512,22.512 0 0 0 22.512,22.512 22.512,22.512 0 0 0 22.513,-22.512 22.512,22.512 0 0 0 -22.513,-22.514 z m -0.504,6.266 a 13.094,13.094 0 0 1 13.094,13.093 13.094,13.094 0 0 1 -13.094,13.094 13.094,13.094 0 0 1 -13.094,-13.094 13.094,13.094 0 0 1 13.094,-13.093 z"
         style="opacity:1;fill:#ffffff;fill-opacity:1;stroke:none;stroke-width:1.52225;stroke-linecap:round;stroke-linejoin:miter;stroke-miterlimit:20.8;stroke-dasharray:none;stroke-dashoffset:0;stroke-opacity:1;paint-order:stroke fill markers"
         id="path62" />
      <path
         d="m 116.097,420.046 c -1.427,-2.465 -8.345,4.609 -5.884,5.935 l 8.904,4.8 c 0.831,0.448 2.511,-1.173 2.015,-2.03 z"
         style="fill:#ffffff;fill-opacity:1;stroke:none;stroke-width:0.224486px;stroke-linecap:butt;stroke-linejoin:miter;stroke-opacity:1"
         transform="matrix(0.34671756,0.10559208,-0.10559208,0.34671756,76.174251,-18.219111)"
         id="path63" />
    </g>
  </g>
  <path
     id="path69"
     style="fill:#0193cf;fill-opacity:1;stroke:none;stroke-width:0.0397254px;stroke-linecap:butt;stroke-linejoin:miter;stroke-opacity:1"
     d="m 58.185431,68.996374 c -1.466663,-0.05972 -3.246167,0.696027 -3.444868,2.326347 -0.04164,0.928543 -0.769544,-0.160608 -1.185991,-0.338066 -2.720739,-1.832105 -6.213455,-1.717212 -9.326172,-1.265624 -1.634236,0.276903 -3.368164,0.633044 -4.701172,1.654296 -0.855751,0.276871 -1.30937,-0.775982 -2.036253,-1.021899 -3.39883,-1.994642 -8.191837,-1.216132 -10.649215,1.913163 -1.297769,1.451424 -1.981496,3.296319 -2.693436,5.075533 -0.37321,-1.742759 -0.75604,-3.604718 -2.08425,-4.902556 -1.42705,-1.642606 -3.67417,-2.051054 -5.73026,-2.253296 -2.82136,-0.208712 -5.69347,0.281623 -8.3202599,1.310149 -1.82135,0.933052 -2.90943,3.304218 -1.95482,5.216361 0.75208,1.758927 2.87624,2.846759 4.7215399,2.200996 1.66556,-0.390954 3.15401,-1.556784 4.93836,-1.403685 0.5501,0.487057 0.5125,1.384893 -0.13086,1.775391 -2.46855,2.058157 -5.9901299,2.488636 -8.1269499,4.988281 -0.77396,1.330564 -0.82014,2.913505 -0.9043,4.392578 0.11989,1.359733 1.35852,2.549314 2.75794,2.399014 4.7162199,0.370511 9.4467399,0.889487 14.1211199,0.0016 0.68829,-0.153597 1.31213,-0.49666 1.867035,-0.924091 2.518417,2.50329 6.600681,2.751837 9.71616,1.298255 1.521551,-0.633843 2.703779,-1.806307 3.881496,-2.919348 0.426358,0.992861 1.326463,1.756639 2.425503,1.847487 4.854343,0.303474 9.731852,0.926039 14.566176,-0.02354 1.559202,-0.322715 2.77858,-1.826084 2.613,-3.439955 0.0042,-1.005682 -0.238824,-1.988233 -0.417179,-2.971879 0.695404,0.278515 1.406741,-0.03505 2.107422,0.08008 0.763687,0.230713 0.426861,1.109942 0.25,1.640625 -0.39586,1.50971 -0.579469,3.520241 0.881179,4.533425 1.527931,1.001455 3.503687,0.749709 5.179368,0.323997 1.098655,-0.337767 1.895728,-1.337708 1.968387,-2.486875 0.260769,-1.557916 0.05719,-3.146214 0.238644,-4.712344 1.152707,-0.147765 2.442787,-0.35531 3.240235,-1.289062 0.182141,-1.364775 1.17863,-2.851563 0.28906,-4.165042 -0.567852,-0.850082 -1.649126,-1.080771 -2.599607,-1.190427 0.06263,-1.836884 0.425081,-3.644141 -0.0078,-5.466797 -0.969691,-1.456212 -2.961172,-1.331296 -4.486959,-1.137821 -1.426566,0.224431 -2.537323,1.504538 -2.620011,2.935398 -0.129916,0.831751 -0.428292,1.588422 -0.917019,2.277427 -0.192277,-0.506698 -0.489074,-1.294214 -0.358865,-1.952042 0.12078,-1.442676 -0.01526,-3.286332 -1.507207,-3.996663 -0.478017,-0.250283 -1.020924,-0.362607 -1.559158,-0.329424 z m -10.05664,7.949219 c 0.66802,0.552661 0.198395,1.546041 -0.489184,1.828853 -1.888905,1.439241 -4.202384,2.134164 -6.239332,3.323491 0.138643,-1.255671 0.263055,-2.439395 0.216797,-3.716797 2.254592,0.08094 4.096521,-1.595559 6.333984,-1.626953 0.05924,0.0638 0.11849,0.127604 0.177735,0.191406 z m -14.791016,1.267578 c 1.035144,0.224405 1.462239,1.513604 1.33298,2.482231 -0.122989,1.070324 -0.655754,2.524011 -1.936495,2.521675 -1.005218,-0.222989 -1.271596,-1.481069 -1.239758,-2.371283 0.07011,-1.049067 0.675357,-2.495628 1.843273,-2.632623 z" />
  <path
     id="path68"
     style="fill:#002255;fill-opacity:1;stroke:none;stroke-width:0.0397254px;stroke-linecap:butt;stroke-linejoin:miter;stroke-opacity:1"
     d="m 58.422532,70.606487 c -0.906,-0.0074 -1.76172,0.163508 -1.97611,0.553455 -0.53143,1.797383 -1.42902,11.233004 0.94516,11.381735 l 5.64927,-0.287837 c -0.93682,3.471022 -2.00124,6.103408 -0.7214,6.712769 1.22436,0.582924 2.13934,0.310737 3.75946,0.03049 1.50966,-0.261175 0.56563,-3.680197 1.25057,-7.094141 1.70724,-0.18682 2.9373,-0.408555 3.14244,-0.664043 0.21304,-1.186655 0.80718,-1.833294 0.46767,-2.473751 -0.28283,-0.53357 -1.56759,-0.458905 -2.97397,-0.536918 0.0556,-1.688011 0.29024,-3.233705 0.29507,-6.203756 9.1e-4,-0.622421 -3.29821,-0.684835 -3.79202,0.114205 -0.32892,0.531888 -1.0016,3.366354 -1.00511,6.112289 -0.40993,0.01466 -3.11391,1.01062 -3.64887,0.583943 -1.05858,-3.768239 1.15051,-8.207793 -1.39216,-8.22844 z m -25.35505,0.252181 c -0.11198,0.0012 -0.22359,0.0048 -0.33538,0.01137 -5.42515,0.329047 -8.164288,6.802188 -7.60057,14.946893 0.14142,2.04401 1.18666,3.447693 2.65359,4.222482 3.34693,1.767928 8.88268,0.263481 10.84275,-4.359425 3.05314,-7.201991 0.76703,-13.367247 -3.01997,-14.457 -0.77186,-0.221124 -1.50424,-0.339017 -2.19729,-0.361218 -0.11431,-0.0036 -0.22877,-0.0047 -0.34313,-0.0031 z m 14.59498,0.169499 c -0.5938,-0.004 -1.18732,0.02069 -1.7787,0.07441 -2.42158,0.215916 -4.58438,0.859182 -5.23069,1.379761 -1.74775,1.407251 -0.92061,3.336759 0.14727,4.031796 2.35469,1.532861 7.19831,-3.950748 9.06664,0.256831 1.86833,4.20758 -8.59487,5.652188 -9.01858,8.255312 -0.28012,1.722834 -0.8226,3.604308 0.4067,3.729488 5.96146,0.60688 14.49185,0.964488 15.38821,-0.6196 0.65136,-1.151749 0.0404,-2.994346 -0.32091,-4.490683 -0.3149,-1.30349 -7.64896,1.37546 -5.87665,-0.244429 3.12069,-2.507069 5.67902,-5.576831 3.38894,-9.84953 -1.05329,-1.868579 -3.58823,-2.50105 -6.17223,-2.52336 z m -32.336018,0.7059 c -0.5938,-0.0041 -1.1873,0.02086 -1.7787,0.07441 -2.42158,0.215916 -4.5844299,0.85863 -5.2311999,1.379244 -1.74728,1.407215 -0.92061,3.33676 0.14727,4.031796 2.3546899,1.532861 7.1972699,-3.950231 9.0655999,0.257349 1.86881,4.207542 -8.5927799,5.652188 -9.0164999,8.255311 -0.28058,1.722875 -0.82308,3.603812 0.40669,3.728971 5.9609499,0.60644 14.4912999,0.965482 15.3871799,-0.618566 0.6518,-1.152269 0.0403,-2.994267 -0.3204,-4.490166 -0.31541,-1.303927 -7.64947,1.373909 -5.87716,-0.24598 3.12073,-2.506595 5.67907,-5.576795 3.38946,-9.849529 -1.05329,-1.86858 -3.58871,-2.500497 -6.17224,-2.522844 z m 18.007688,4.873605 c 0.40687,-0.0015 0.80744,0.09891 1.16531,0.292489 1.57335,0.843792 2.21695,3.24939 1.43712,5.372282 -0.77987,2.122419 -2.68794,3.158861 -4.26176,2.315105 -1.57385,-0.84423 -2.21751,-3.249348 -1.43764,-5.371766 0.53179,-1.446221 1.61922,-2.446487 2.81534,-2.590023 0.0945,-0.01112 0.18822,-0.01754 0.28163,-0.01809 z" />
  <path
     id="path60-6"
     style="fill:#ffffff;fill-opacity:1;stroke:none;stroke-width:0.0397254px;stroke-linecap:butt;stroke-linejoin:miter;stroke-opacity:1"
     d="m 57.97131,69.567359 c -0.906,-0.0074 -1.76172,0.163508 -1.97611,0.553455 -0.53143,1.797383 -1.42902,11.233004 0.94516,11.381735 l 5.64927,-0.287837 c -0.93682,3.471022 -2.00124,6.103408 -0.7214,6.712769 1.22436,0.582924 2.13934,0.310737 3.75946,0.03049 1.50966,-0.261175 0.56563,-3.680197 1.25057,-7.094141 1.70724,-0.18682 2.9373,-0.408555 3.14244,-0.664043 0.21304,-1.186655 0.80718,-1.833294 0.46767,-2.473751 -0.28283,-0.53357 -1.56759,-0.458905 -2.97397,-0.536918 0.0556,-1.688011 0.29024,-3.233705 0.29507,-6.203756 9.1e-4,-0.622421 -3.29821,-0.684835 -3.79202,0.114205 -0.32892,0.531888 -1.0016,3.366354 -1.00511,6.112289 -0.40993,0.01466 -3.11391,1.01062 -3.64887,0.583943 -1.05858,-3.768239 1.15051,-8.207793 -1.39216,-8.228439 z M 32.61626,69.81954 c -0.11198,0.0012 -0.22359,0.0048 -0.33538,0.01137 -5.42515,0.329047 -8.164286,6.802188 -7.600566,14.946893 0.14142,2.04401 1.186656,3.447693 2.653586,4.222482 3.34693,1.767928 8.88268,0.263481 10.84275,-4.359425 3.05314,-7.201991 0.76703,-13.367247 -3.01997,-14.457 -0.77186,-0.221124 -1.50424,-0.339017 -2.19729,-0.361218 -0.11431,-0.0036 -0.22877,-0.0047 -0.34313,-0.0031 z m 14.59498,0.169499 c -0.5938,-0.004 -1.18732,0.02069 -1.7787,0.07441 -2.42158,0.215916 -4.58438,0.859182 -5.23069,1.379761 -1.74775,1.407251 -0.92061,3.336759 0.14727,4.031796 2.35469,1.532861 7.19831,-3.950748 9.06664,0.256831 1.86833,4.20758 -8.59487,5.652188 -9.01858,8.255312 -0.28012,1.722834 -0.8226,3.604308 0.4067,3.729488 5.96146,0.60688 14.49185,0.964488 15.38821,-0.6196 0.65136,-1.151749 0.0404,-2.994346 -0.32091,-4.490683 -0.3149,-1.30349 -7.64896,1.37546 -5.87665,-0.244429 3.12069,-2.507069 5.67902,-5.576831 3.38894,-9.84953 -1.05329,-1.868579 -3.58823,-2.50105 -6.17223,-2.52336 z m -32.336016,0.7059 c -0.5938,-0.0041 -1.1873,0.02086 -1.7787,0.07441 -2.42159,0.215916 -4.5844399,0.85863 -5.2312099,1.379244 -1.74728,1.407215 -0.92061,3.33676 0.14727,4.031796 2.3546899,1.532861 7.1972799,-3.950231 9.0656099,0.257349 1.86881,4.207542 -8.5927899,5.652188 -9.0165099,8.255311 -0.28058,1.722875 -0.82308,3.603812 0.40669,3.728971 5.9609599,0.60644 14.4913099,0.965482 15.3871899,-0.618566 0.6518,-1.152269 0.0403,-2.994267 -0.3204,-4.490166 -0.31541,-1.303927 -7.64947,1.373909 -5.87716,-0.24598 3.12073,-2.506595 5.67907,-5.576795 3.38946,-9.849529 -1.05329,-1.86858 -3.58871,-2.500497 -6.17224,-2.522844 z m 18.007686,4.873605 c 0.40687,-0.0015 0.80744,0.09891 1.16531,0.292489 1.57335,0.843792 2.21695,3.24939 1.43712,5.372282 -0.77987,2.122419 -2.68794,3.158861 -4.26176,2.315105 -1.57385,-0.84423 -2.21751,-3.249348 -1.43764,-5.371766 0.53179,-1.446221 1.61922,-2.446487 2.81534,-2.590023 0.0945,-0.01112 0.18822,-0.01754 0.28163,-0.01809 z" />
</svg>
