<?xml version="1.0" encoding="UTF-8" standalone="no"?>
<svg
   width="621.237"
   height="644.64"
   viewBox="0 0 164.369 170.561"
   version="1.1"
   id="svg67"
   sodipodi:docname="bluepwnie-orig.svg"
   inkscape:export-filename="bluepwnie-orig.png"
   inkscape:export-xdpi="96"
   inkscape:export-ydpi="96"
   inkscape:version="1.3.2 (091e20e, 2023-11-25)"
   xmlns:inkscape="http://www.inkscape.org/namespaces/inkscape"
   xmlns:sodipodi="http://sodipodi.sourceforge.net/DTD/sodipodi-0.dtd"
   xmlns="http://www.w3.org/2000/svg"
   xmlns:svg="http://www.w3.org/2000/svg">
  <defs
     id="defs67" />
  <sodipodi:namedview
     id="namedview67"
     pagecolor="#ffffff"
     bordercolor="#000000"
     borderopacity="0.25"
     inkscape:showpageshadow="2"
     inkscape:pageopacity="0.0"
     inkscape:pagecheckerboard="0"
     inkscape:deskcolor="#d1d1d1"
     inkscape:zoom="2.6925545"
     inkscape:cx="217.0801"
     inkscape:cy="332.2124"
     inkscape:window-width="1984"
     inkscape:window-height="1136"
     inkscape:window-x="0"
     inkscape:window-y="38"
     inkscape:window-maximized="0"
     inkscape:current-layer="g66" />
  <path
     d="M115.703 87.907a113.785 122.626 0 0 0-109.738 90.76h219.571a113.785 122.626 0 0 0-109.833-90.76Z"
     style="opacity:1;fill:#8729a3;fill-opacity:1;stroke:#025;stroke-width:20;stroke-linecap:round;stroke-linejoin:miter;stroke-miterlimit:15;stroke-dasharray:none;stroke-dashoffset:0;stroke-opacity:1;paint-order:stroke fill markers"
     transform="matrix(.63349 0 0 .67413 9.482 -25.139)"
     id="path1" />
  <path
     d="M118.773 103.45a101.046 86.959 0 0 0-99.29 71.16h198.6a101.046 86.959 0 0 0-99.31-71.16z"
     style="opacity:1;fill:#eb3297;fill-opacity:1;stroke:#025;stroke-width:6.43253;stroke-linecap:round;stroke-linejoin:miter;stroke-miterlimit:15;stroke-dasharray:none;stroke-dashoffset:0;stroke-opacity:1;paint-order:stroke fill markers"
     transform="matrix(.63349 0 0 .67413 9.482 -25.139)"
     id="path2" />
  <path
     d="M121.396 115.576a93.836 88.96 0 0 0-92.175 72.602h184.353a93.836 88.96 0 0 0-92.178-72.602z"
     style="opacity:1;fill:#ff80b2;fill-opacity:1;stroke:#025;stroke-width:5.51818;stroke-linecap:round;stroke-linejoin:miter;stroke-miterlimit:15;stroke-dasharray:none;stroke-dashoffset:0;stroke-opacity:1;paint-order:stroke fill markers"
     transform="matrix(.63349 0 0 .67413 9.482 -25.139)"
     id="path3" />
  <g
     style="stroke-width:1.3058"
     id="g29">
    <path
       d="M68.01 120.054s50.735-33.353 57.596 8.27c18.867 2.576 11.474 21.7 6.031 36.82 0 0 47.625 17.06 47.625 30.28-17.88 30.97-42.695-9.027-57.13-14.833z"
       style="fill:#4d4d4d;stroke:gray;stroke-width:3.9174;stroke-linecap:butt;stroke-linejoin:miter;stroke-miterlimit:15;stroke-dasharray:none;stroke-opacity:1"
       transform="matrix(.46903 0 0 .4697 64.915 -49.526)"
       id="path4" />
    <path
       d="M124.478 171.18c6.602 13.461 18.041 27.07 6.14 63.64-1.537-5.283-1.721-11.787-4.013-17.967 1.141 12.098-3.799 32.705-7.92 49.53-1.474-7.468 1.35-30.155-1.73-30.875.85 7.865-4.424 23.143-6.002 28.52l-5.788-16.193.687-71.32z"
       style="fill:#0193cf;fill-opacity:1;stroke:#0193cf;stroke-width:3.9174;stroke-linecap:butt;stroke-linejoin:miter;stroke-miterlimit:15;stroke-dasharray:none;stroke-opacity:1"
       transform="matrix(.46903 0 0 .4697 64.915 -49.526)"
       id="path5" />
    <path
       d="M125.606 128.324c-9.338-28.03-56.485-7.153-49.822 2.366"
       style="fill:none;stroke:gray;stroke-width:1.9587;stroke-linecap:butt;stroke-linejoin:miter;stroke-miterlimit:15;stroke-dasharray:none;stroke-opacity:1"
       transform="matrix(.46903 0 0 .4697 64.915 -49.526)"
       id="path6" />
    <path
       d="M87.907 286c-.276-.139 14.315-17.926 34.396-18.332 32.199-.652 36.43 25.546 36.191 25.891-2.915-3.894-8.912-10.979-15.024-13.04 8.203 7.455 11.488 17.136 10.016 26.08-2.796-6.382-6.482-10.44-12.038-14.025 5.167 7.417 8.387 16.897 7.009 23.97l-17.272-.495c0-3.303-6.1-15.39-16.914-16.253-7.517-.6-11.717 15.97-11.717 15.97l-7.087-.284z"
       style="fill:#0193cf;fill-opacity:1;stroke:#6aabd9;stroke-width:3.9174;stroke-linecap:butt;stroke-linejoin:miter;stroke-miterlimit:15;stroke-dasharray:none;stroke-opacity:1"
       transform="matrix(.46903 0 0 .4697 64.915 -49.526)"
       id="path7" />
    <path
       d="M434.371 1112.106c-18.901.27-37.815 13.677-55.799 42.556l9.033 38.781s15.876-62.626 44.286-60.357c40.868 3.264 63.927 48.949 63.927 61.43l40.61.84c-16.22-35.842-60.473-83.843-102.057-83.25z"
       style="fill:#f37737;fill-opacity:1;stroke:none;stroke-width:1.3058px;stroke-linecap:butt;stroke-linejoin:miter;stroke-opacity:1"
       transform="matrix(.1241 0 0 .12428 64.915 -49.526)"
       id="path8" />
    <path
       d="M148.457 316.544c-13.97-32.772-44.523-33.668-49.476-17.38l1.183 6.34c3.428-5.489 17.06-26.006 41.766 10.767z"
       style="fill:#fff697;fill-opacity:1;stroke:none;stroke-width:.345493px;stroke-linecap:butt;stroke-linejoin:miter;stroke-opacity:1"
       transform="matrix(.46903 0 0 .4697 64.915 -49.526)"
       id="path9" />
    <path
       transform="matrix(.1241 0 0 .12428 64.915 -49.526)"
       d="M467.875 1011.615c-1.85-.01-3.725 0-5.627.043-44.752.905-82.278 24.647-105.336 44.09l5.733 26.365c53.213-57.494 127.509-48.823 179.634-21.855l-.03-.03c10.54 3.555 20.975 11.072 30.269 19.583 11.94 9.618 21.156 19.927 26.515 29.705.892-1.285-14.593-97.25-131.158-97.9z"
       style="fill:#69207f;fill-opacity:1;stroke:none;stroke-width:1.3058px;stroke-linecap:butt;stroke-linejoin:miter;stroke-opacity:1"
       id="path10" />
    <path
       d="M125.606 128.324c-4.818-8.676-23.169 18.833-23.741 20.131"
       style="fill:none;stroke:gray;stroke-width:1.9587;stroke-linecap:butt;stroke-linejoin:miter;stroke-miterlimit:15;stroke-dasharray:none;stroke-opacity:1"
       transform="matrix(.46903 0 0 .4697 64.915 -49.526)"
       id="path11" />
    <path
       transform="matrix(.1241 0 0 .12428 64.915 -49.526)"
       d="m443.572 682.877-45.24 164.62-.86 89.202 21.88 61.203c37.9-108.118 39.381-248.278 24.22-315.025ZM438.209 1067.135c-25.926-.275-49.172 9.344-70.008 24.07 4.658.443 1.996 41.667 5.901 39.493 27.256-51.431 116.113-59.905 186.996 65.689 5.028-25.812-3.013-52.954-22.474-82.918-28.184-43.396-70.092-46.013-100.415-46.334z"
       style="fill:#7cc041;fill-opacity:1;stroke:none;stroke-width:1.3058px;stroke-linecap:butt;stroke-linejoin:miter;stroke-opacity:1"
       id="path12" />
    <path
       d="M68.536 162.685s-5.816 22.904-28.915 18.71c-3.533-.642-3.555 10.577-2.389 14.72 5.383 15.7 31.187 22.147 42.454 18.92 0 0 1.29 4.687-.189 10.205-1.478 5.518-22.3 44.034-35.152 68.225-12.85 24.19-13.796 22.49-13.796 22.49l72.005-.19s-7.182-22.49-.945-51.216c6.236-28.726 17.576-75.784 17.576-75.784 7.668-12.702 20.993-43.368 12.85-61.232-3.383 7.5-14.93 9.246-19.276 20.6l-11.906-8.127H77.607l-10.205 8.316z"
       style="fill:#9dd8f6;fill-opacity:1;stroke:#6aabd9;stroke-width:3.9174;stroke-linecap:butt;stroke-linejoin:miter;stroke-miterlimit:15;stroke-dasharray:none;stroke-opacity:1"
       transform="matrix(.46903 0 0 .4697 64.915 -49.526)"
       id="path13" />
    <path
       d="m60.67 258.647 15.1 21.515s4.544 7.75 13.899 6.815c9.354-.935 14.299-3.207 13.23-8.82-1.07-5.612-9.622-19.243-12.696-22.05-3.073-2.806-28.865-21.38-37.417-20.044-8.553 1.336-9.915 8.85-8.712 12.457 1.203 3.609 16.596 10.127 16.596 10.127z"
       style="fill:#9dd8f6;fill-opacity:1;stroke:#6aabd9;stroke-width:3.9174;stroke-linecap:butt;stroke-linejoin:miter;stroke-miterlimit:15;stroke-dasharray:none;stroke-opacity:1"
       transform="matrix(.46903 0 0 .4697 64.915 -49.526)"
       id="path14" />
    <path
       d="M105.165 247.835c-3.591-4.242-25.118-17.92-31.399-17.92-15.538 0-33.715 20.104-40.49 37.953-2.23 5.873-6.816 19.243 2.27 18.708 9.088-.534 20.982-6.681 23.12-11.492 2.138-4.811 6.147-27.262 13.096-28.865 6.949-1.604 24.543 19.624 29.827 17.901 8.888-2.899 11.583-6.826 3.576-16.285z"
       style="fill:#9dd8f6;fill-opacity:1;stroke:#6aabd9;stroke-width:3.9174;stroke-linecap:butt;stroke-linejoin:miter;stroke-miterlimit:15;stroke-dasharray:none;stroke-opacity:1"
       transform="matrix(.46903 0 0 .4697 64.915 -49.526)"
       id="path15" />
    <path
       transform="matrix(.1241 0 0 .12428 64.915 -49.526)"
       d="M470.469 646.979c-1.49 15.115-3.533 20.186-8.865 35.568 53.318 21.45 144.112 166.33 211.289 63.605-41.578 50.391-202.424-99.173-202.424-99.173z"
       style="fill:#000;stroke:gray;stroke-width:14.8059;stroke-linecap:butt;stroke-linejoin:miter;stroke-miterlimit:15;stroke-dasharray:none;stroke-opacity:1"
       id="path16" />
    <path
       transform="matrix(.1241 0 0 .12428 64.915 -49.526)"
       d="m470.469 646.979-8.865 35.568c-11.142 30.896 3.368 56.653 12.783 119.244 0 0 1.757 8.485 4.361 20.924-.073-1.047-.144-2.096-.24-3.111 8.661 23.354 9.356 47.936 15.164 67.902 44.984-138.216 1.75-189.649-23.203-240.527z"
       style="fill:#69207f;fill-opacity:1;stroke:none;stroke-width:1.3058px;stroke-linecap:butt;stroke-linejoin:miter;stroke-opacity:1"
       id="path17" />
    <path
       d="M126.151 197.308c1.103-6.463 4.395-14.533.267-22.45-4.798-9.203-14.772-21.428-14.772-21.428l-73.16-3.963s-11.756 44.7 20.313 28.064c4.846 20.634 19.49 24.577 29.987 22.88 13.245-2.141 17.066-23.896 17.066-23.896s8.98 2.459 11.947 5.425c2.564 2.564 1.002 15.569 1.002 15.569 1.276 6.598 6.9 2.439 7.35-.2z"
       style="fill:#000;stroke:#000;stroke-width:1.9587;stroke-linecap:butt;stroke-linejoin:miter;stroke-miterlimit:15;stroke-dasharray:none;stroke-opacity:1"
       transform="matrix(.46903 0 0 .4697 64.915 -49.526)"
       id="path18" />
    <path
       d="m102.613 155.878-16.472-.898-13.725 39.992c1.098.879 2.113 1.828 4.062 1.976 3.678-5.964 8.248-18.617 12.75-27.208 4.1-7.827 6.095-2.665 7.686-3.11 6.466-1.806 5.699-10.752 5.699-10.752z"
       style="fill:gray;stroke:none;stroke-width:1.9587;stroke-linecap:butt;stroke-linejoin:miter;stroke-miterlimit:15;stroke-dasharray:none;stroke-opacity:1"
       transform="matrix(.46903 0 0 .4697 64.915 -49.526)"
       id="path19" />
    <path
       transform="matrix(.1241 0 0 .12428 64.915 -49.526)"
       d="m187.408 567.188-23.711 112.68c1.705 1.153 3.48 2.184 6.303 2.103 7.597-13.13 16.224-23.617 25.816-31.846 17.62-15.116 18.525-29.094 22.487-41.049 7.839-23.656 30.439-38.017 31.242-38.521z"
       style="fill:gray;stroke:none;stroke-width:7.40296;stroke-linecap:butt;stroke-linejoin:miter;stroke-miterlimit:15;stroke-dasharray:none;stroke-opacity:1"
       id="path20" />
    <g
       style="stroke-width:6.05162;stroke-miterlimit:4;stroke-dasharray:none"
       id="g25">
      <g
         style="stroke:gray;stroke-width:6.05162;stroke-miterlimit:4;stroke-dasharray:none"
         transform="matrix(.0828 .06034 -.08516 .06182 139.062 14.937)"
         id="g24">
        <circle
           style="opacity:1;fill:#000;fill-opacity:1;stroke:gray;stroke-width:6.05162;stroke-linecap:round;stroke-linejoin:miter;stroke-miterlimit:4;stroke-dasharray:none;stroke-dashoffset:0;stroke-opacity:1;paint-order:stroke fill markers"
           cx="-204.797"
           cy="70.009"
           r="10.131"
           id="circle20" />
        <circle
           r="10.131"
           cy="90.789"
           cx="-177.538"
           style="opacity:1;fill:#000;fill-opacity:1;stroke:gray;stroke-width:6.05162;stroke-linecap:round;stroke-linejoin:miter;stroke-miterlimit:4;stroke-dasharray:none;stroke-dashoffset:0;stroke-opacity:1;paint-order:stroke fill markers"
           id="circle21" />
        <circle
           style="opacity:1;fill:#000;fill-opacity:1;stroke:gray;stroke-width:6.05162;stroke-linecap:round;stroke-linejoin:miter;stroke-miterlimit:4;stroke-dasharray:none;stroke-dashoffset:0;stroke-opacity:1;paint-order:stroke fill markers"
           cx="-177.159"
           cy="120.143"
           r="10.131"
           id="circle22" />
        <circle
           r="10.131"
           cy="119.541"
           cx="-205.231"
           style="opacity:1;fill:#000;fill-opacity:1;stroke:gray;stroke-width:6.05162;stroke-linecap:round;stroke-linejoin:miter;stroke-miterlimit:4;stroke-dasharray:none;stroke-dashoffset:0;stroke-opacity:1;paint-order:stroke fill markers"
           id="circle23" />
        <circle
           style="opacity:1;fill:#000;fill-opacity:1;stroke:gray;stroke-width:6.05162;stroke-linecap:round;stroke-linejoin:miter;stroke-miterlimit:4;stroke-dasharray:none;stroke-dashoffset:0;stroke-opacity:1;paint-order:stroke fill markers"
           cx="-234.059"
           cy="123.231"
           r="10.131"
           id="circle24" />
      </g>
    </g>
    <path
       d="M17.42 135.85c9.142-3.66 15.307-2.74 15.307-2.74-11.692 5.042-10.22 12.436-12.694 19.125 4.8-5.103 9.798-8.722 15.308-8.504-12.018 5.532-10.542 22.352-13.702 40.254 23.465-45.916 44.786-23.396 91.187-35.719-20.162-47.501-83.276-45.37-95.407-12.416Z"
       style="fill:#f37737;fill-opacity:1;stroke:#0193cf;stroke-width:3.9174;stroke-linecap:butt;stroke-linejoin:miter;stroke-miterlimit:20.8;stroke-dasharray:none;stroke-opacity:1"
       transform="matrix(.46903 0 0 .4697 64.915 -49.526)"
       id="path25" />
    <path
       transform="matrix(.1241 0 0 .12428 64.915 -49.526)"
       d="M220.764 422.412c-69.604-.134-133.436 32.652-154.928 91.035 28.714-11.493 61.603-12.173 67.863-11.69 95.97-43.836 214.959-37.397 292.729 58.62-40.483-95.378-126.78-137.813-205.664-137.965Z"
       style="fill:#ee4035;fill-opacity:1;stroke:none;stroke-width:1.3058px;stroke-linecap:butt;stroke-linejoin:miter;stroke-opacity:1"
       id="path26" />
    <path
       d="M44.716 188.052a2.198 2.46 88.311 0 0-.41 1.275 2.198 2.46 88.311 0 0 2.522 2.124 2.198 2.46 88.311 0 0 2.394-2.269 2.198 2.46 88.311 0 0-.008-.106 2.198 2.46 88.311 0 1-1.982.994 2.198 2.46 88.311 0 1-2.516-2.018z"
       style="opacity:1;fill:#6aabd9;fill-opacity:1;stroke:none;stroke-width:3.19998;stroke-linecap:round;stroke-linejoin:miter;stroke-miterlimit:4;stroke-dasharray:none;stroke-dashoffset:0;stroke-opacity:1;paint-order:stroke fill markers"
       transform="matrix(.46903 0 0 .4697 64.915 -49.526)"
       id="path27" />
    <path
       transform="matrix(.1241 0 0 .12428 64.915 -49.526)"
       d="M81.785 695.377c88.686-173.54 169.271-88.427 344.643-135-161.348-70.798-300.605 6.573-344.643 135z"
       style="fill:#fff697;fill-opacity:1;stroke:none;stroke-width:1.3058px;stroke-linecap:butt;stroke-linejoin:miter;stroke-opacity:1"
       id="path28" />
    <path
       d="M129.76 139.311c-.203 8.838-4.281 14.124-8.687 19.11 3.833-5.7 7.318-11.65 8.686-19.11z"
       style="fill:#6aabd9;fill-opacity:1;stroke:none;stroke-width:.345493px;stroke-linecap:butt;stroke-linejoin:miter;stroke-opacity:1"
       transform="matrix(.46903 0 0 .4697 64.915 -49.526)"
       id="path29" />
  </g>
  <g
     id="g67"
     inkscape:label="g67">
    <path
       style="fill:#025;fill-opacity:1;stroke:none;stroke-width:.398445px;stroke-linecap:butt;stroke-linejoin:miter;stroke-opacity:1"
       d="m286.922 322.555-.045 5.076c-6.102-1.801-12.215-2.501-17.283-2.545a90.193 90.193 0 0 0-8.748.367c-7.006.626-15.4 2.361-22.35 5.127-2.75-1.63-5.681-3.024-8.896-3.95l-.008-.001-.006-.002c-4.4-1.261-8.865-2.011-13.36-2.156a49.437 49.437 0 0 0-2.21-.022H214c-.74.01-1.495.035-2.27.082-12.986.787-23.035 6.222-30.566 14.389-9.99-8.622-23.887-11.077-33.785-11.162a89.974 89.974 0 0 0-8.748.361c-10.322.922-23.91 4.054-30.955 9.729-16.881 13.595-14.165 35.837.12 47.085-3.353 3.62-6.002 7.89-6.862 13.18-.295 1.809-8.082 31.432 15.326 37.305-4.231 4.11-8.32 8.656-12.174 13.92-12.104 16.53 5.75 119.569 27.947 143.492 1.72 1.853 3.606 3.102 5.461 4.076 3.613 3.108 7.736 4.636 11.276 5.25 8.632 3.724 20.087 2.484 29.478.885a73.724 73.724 0 0 0-1.434 7.422c-6.026 43.593 9.912 78.237 36.475 95.808l-.299-.2.627.444c-.036-.028-.069-.058-.105-.085 7.238 5.428 15.284 9.443 23.816 11.785 9.567 3.64 19.78 5.194 30.121 4.215 20.846-1.974 46.228-4.298 60.215-15.573 1.32 1.01 2.633 2.03 4.016 2.944-.111-.08-.225-.155-.338-.23l.61.43c-.036-.026-.07-.054-.106-.081 7.01 5.278 14.89 9.224 23.388 11.478l-1.834-.615a66.142 66.142 0 0 0 16.86 4.406h.008l.006.002c26.714 3.287 48.74-1.745 65.674-13.511 1.316 1.502 2.781 2.892 4.61 3.984.31.184.591.276.897.443.88.785 1.765 1.577 2.89 2.248 3.161 1.888 6.409 2.914 9.56 3.604 14.523 6.35 32.847.84 43.37-1.441 9.936-2.155 13.84-12.422 15.26-24.438a105.443 105.443 0 0 0 10.973 9.775c1.965 2.18 4.178 3.74 6.37 5.05 4.47 3.691 10.31 6.094 15.07 7.21 17.541 6.815 50.984 4.457 57.416-15.771 7.55-23.748 3.037-70.323-.133-104.407 24.746 5.52 55.27 10.194 71.308 12.809l3.452.563 3.347-1.01c19.243-5.804 22.905-43.936 9.594-59.74 9.511-10.773 12.314-32.054 6.478-44.805 20.786-5.845 29.083-47.49 10.583-59.277l-1.16-.74-1.278-.518c-1.547-.628-3.68-1.297-5.72-1.957-.627-.521-1.13-1.1-1.86-1.565l-1.16-.74-1.278-.518c-14.153-5.744-75.378-20.198-101.975-16.439a41.94 41.94 0 0 0-8.773 2.246 31.848 31.848 0 0 0-9.039-4.408c-.498-.152-.974-.263-1.465-.402-2.635-1.852-5.446-3.428-8.553-4.377-20.054-6.13-34.386-1.837-44.052 9.156-11.86-5.892-50.777-8.149-58.961 5.082-.058.093-.098.193-.155.287-4.698-5.614-10.185-10.074-16.828-11.865-.285-.077-.603-.172-.894-.252-2.655-1.875-5.585-3.573-9.125-4.528-9.663-2.605-31.868-10.94-42.922.274-.047-.013-.093-.023-.14-.035-.775-.615-1.487-1.26-2.415-1.791 2.52-10.68-1.123-21.208-1.967-24.703-1.29-5.344-3.883-8.934-7.002-11.516 2.378-9.482 1.801-20.223-4.28-31.57l-.305-.573-.348-.543.435.725c-9.082-16.113-28.522-20.011-41.26-20.121a89.953 89.953 0 0 0-8.75.365c-8.728.78-19.56 3.25-27.029 7.39-2.134-1.333-4.377-2.433-6.658-3.376zM212.695 705.86c.09.07.184.134.278.198zm118.37 3.514c.076.058.154.112.234.166z"
       transform="matrix(.26458 0 0 .26458 -25.407 -21.574)"
       id="path30" />
    <g
       style="fill:#0193cf;fill-opacity:1"
       id="g42">
      <path
         style="fill:#0193cf;fill-opacity:1;stroke:none;stroke-width:.290866px;stroke-linecap:butt;stroke-linejoin:miter;stroke-opacity:1"
         d="M-35.976 286.687c-15.603-.093-28.496 7.486-38.937 24.362-3.426 5.538 10.667 74.237 26.594 88.921 3.845 3.546 17.165-1.174 25.347-2.908 11.042-2.341-10.765-28.22-8.31-32.827 1.958-3.675 34.314-3.39 38.769-20.927 5.255-20.69-13.846-50.001-25.457-53.585-6.365-1.965-12.363-3.002-18.006-3.036zm6.955 32.554a8.917 8.917 0 0 1 8.404 5.801 8.912 8.912 0 0 1-1.482 8.776c3.024 3.565 13.454 9.062 9.073 10.695l-8.716 3.25-8.717 3.251c-4.407 1.643-.096-9.406-.144-14.109a8.912 8.912 0 0 1-6.715-5.636 8.912 8.912 0 0 1 5.236-11.464 8.896 8.896 0 0 1 3.06-.564z"
         transform="rotate(4.466 141.615 557.585) scale(.36244)"
         id="path31" />
      <path
         d="M12.198 303.38c-3.794 15.118 15.246 53.85 19.02 75.69 1.02 5.902 28.28-.078 29.489-1.787 10.35-14.633 7.977-31.893 10.169-34.907 2.192-3.014 9.1 33.914 23.686 35.372 9.652.964 20.265 3.243 20.587-3.162 1.557-31.047 9.754-79.91.685-84.103-6.596-3.049-16.639.64-24.838 2.935-7.145 2 7.016 47.402-2.518 38.681-15.17-13.877-14.836-16.502-20.476-15.68-3.847.561-4.333 13.492-11.79 19.063-8.36 6.245-10.847-32.588-13.535-35.632-5.567-6.301-28.731-3.437-30.48 3.53z"
         style="fill:#0193cf;fill-opacity:1;stroke:none;stroke-width:.221799px;stroke-linecap:butt;stroke-linejoin:miter;stroke-opacity:1"
         transform="matrix(.39723 .03104 -.03104 .39723 41.26 -26.441)"
         id="path32" />
      <g
         style="fill:#0193cf;fill-opacity:1;stroke:none"
         id="g34">
        <path
           d="M239.19 366.82c-5.918 10.12 1.54 41.12.27 57.372-.344 4.392 22.26 4.926 23.543 3.918 7.1-33.785 2.128-46.717.85-58.442-.723-4.939-21.934-7.514-24.662-2.849z"
           style="fill:#0193cf;fill-opacity:1;stroke:none;stroke-width:.171183px;stroke-linecap:butt;stroke-linejoin:miter;stroke-opacity:1"
           transform="matrix(.39837 .00796 -.00732 .3664 23.499 -29.17)"
           id="path33" />
        <path
           d="M237.523 347.807c3.693-14.718 9.136-22.487 24.58-17.72 7.482 2.31 10.628 12.581 2.582 23.741-8.384 11.629-30.854 8.698-27.162-6.02z"
           style="fill:#0193cf;fill-opacity:1;stroke:none;stroke-width:.187459px;stroke-linecap:butt;stroke-linejoin:miter;stroke-opacity:1"
           transform="matrix(.39837 .00796 -.00732 .3664 23.499 -29.17)"
           id="path34" />
      </g>
      <path
         style="fill:#0193cf;fill-opacity:1;stroke:none;stroke-width:.23967px;stroke-linecap:butt;stroke-linejoin:miter;stroke-opacity:1"
         d="M217.168 360.837c5.277-16.552.437-58.908-1.567-83.578-.542-6.667-29.773-2.486-30.835-.426-7.838 15.205-1.145 35.406-3.69 38.588-2.545 3.183-13.691-40.345-28.736-43.167-9.957-1.868-20.797-5.281-21.695 1.837-4.352 34.504-17.179 88.336-8.113 93.756 6.594 3.943 17.366.652 26.097-1.234 7.61-1.644-3.128-53.451 6.024-42.941 8.492 12.915 16.641 28.326 30.497 38.601 5.237 7.486 29.586 6.192 32.018-1.436z"
         transform="rotate(4.466 141.615 557.585) scale(.36244)"
         id="path35" />
      <path
         d="M264.53 274.953c-.708 25.65-12 87.217-7.65 90.494 7.785 5.867 56.173 9.333 75.8 10.979 6.033-2.346 4.553-25.513-1.54-26.917-10.577-2.09-21.81-6.372-43.67-7.232.488-2.732.97-5.634 1.421-8.756 11.347 1.164 20.74 2.235 40.743 3.784 4.192.324 7.58-20.3 2.4-23.363-3.448-2.04-22.263-7.108-40.757-8.535.069-2.21.114-4.504.136-6.889 21.743-3.163 35.441 1.183 46.523 1.042 6.158-.258 9.445-20.76 3.642-23.85-11.889-3.777-75.076-13.437-77.049-.757z"
         style="fill:#0193cf;fill-opacity:1;stroke:none;stroke-width:.188966px;stroke-linecap:butt;stroke-linejoin:miter;stroke-opacity:1"
         transform="rotate(4.466 141.615 557.585) scale(.36244)"
         id="path36" />
      <path
         d="M75.461 404.121c-8.489 9.379-53.46-21.901-58.051 22.872-1.462 54.205 57.951 15.133 62.484 29.276 5.427 16.937-14.938 20.426-39.226 24.655-26.06 4.537-54.39-19.281-51.856-61.898 2.34-39.347 57.96-60.866 83.684-35.555 3.309 3.256 7.6 15.53 2.965 20.65z"
         style="fill:#0193cf;fill-opacity:1;stroke:none;stroke-width:.615074px;stroke-linecap:butt;stroke-linejoin:miter;stroke-opacity:1"
         transform="rotate(4.466 141.615 557.585) scale(.36244)"
         id="path37" />
      <path
         d="M274.418 455.619c3.958-16.916-4.197-58.76-8.135-83.196-1.064-6.604-29.876-.137-30.772 2-6.619 15.774 1.642 35.386-.645 38.759-2.287 3.373-16.82-39.144-32.041-40.775-10.073-1.079-21.148-3.629-21.484 3.538-1.625 34.74-10.179 89.413-.715 94.104 6.884 3.412 17.364-.716 25.92-3.283 7.455-2.237-7.322-53.04 2.627-43.282 9.483 12.207 18.818 26.93 33.439 36.084 5.809 7.051 29.981 3.846 31.806-3.95z"
         style="fill:#0193cf;fill-opacity:1;stroke:none;stroke-width:.23967px;stroke-linecap:butt;stroke-linejoin:miter;stroke-opacity:1"
         transform="rotate(4.466 141.615 557.585) scale(.36244)"
         id="path38" />
      <g
         style="fill:#0193cf;fill-opacity:1"
         id="g41">
        <path
           transform="rotate(16.935 8.005 241.657) scale(.10542)"
           d="M477.418 1047.602c-85.513.442-192.12 74.565-197.713 168.623-8.713 146.517 88.682 228.403 178.277 212.804 173.032-30.274 197.97-183.768 109.426-335.04-19.096-32.626-52.518-46.581-89.99-46.387zm-40.354 124.931a72.984 76.267 0 0 1 72.983 76.268 72.984 76.267 0 0 1-72.983 76.265 72.984 76.267 0 0 1-72.984-76.265 72.984 76.267 0 0 1 72.984-76.268z"
           style="fill:#0193cf;fill-opacity:1;stroke:none;stroke-width:2.11463px;stroke-linecap:butt;stroke-linejoin:miter;stroke-opacity:1"
           id="path39" />
        <path
           transform="rotate(16.935 8.005 241.657) scale(.10542)"
           d="M440.346 1226.287a22.512 22.512 0 0 0-22.512 22.514 22.512 22.512 0 0 0 22.512 22.512 22.512 22.512 0 0 0 22.513-22.512 22.512 22.512 0 0 0-22.513-22.514zm-.504 6.266a13.094 13.094 0 0 1 13.094 13.093 13.094 13.094 0 0 1-13.094 13.094 13.094 13.094 0 0 1-13.094-13.094 13.094 13.094 0 0 1 13.094-13.093z"
           style="opacity:1;fill:#0193cf;fill-opacity:1;stroke:none;stroke-width:1.52225;stroke-linecap:round;stroke-linejoin:miter;stroke-miterlimit:20.8;stroke-dasharray:none;stroke-dashoffset:0;stroke-opacity:1;paint-order:stroke fill markers"
           id="path40" />
        <path
           d="M116.097 420.046c-1.427-2.465-8.345 4.609-5.884 5.935l8.904 4.8c.831.448 2.511-1.173 2.015-2.03z"
           style="fill:#0193cf;fill-opacity:1;stroke:none;stroke-width:.224486px;stroke-linecap:butt;stroke-linejoin:miter;stroke-opacity:1"
           transform="rotate(16.938 96.346 256.216) scale(.36244)"
           id="path41" />
      </g>
    </g>
    <g
       style="fill:#025"
       id="g53">
      <path
         d="M-35.976 286.687c-15.603-.093-28.496 7.486-38.937 24.362-3.426 5.538 10.667 74.237 26.594 88.921 3.845 3.546 17.165-1.174 25.347-2.908 11.042-2.341-10.765-28.22-8.31-32.827 1.958-3.675 34.314-3.39 38.769-20.927 5.255-20.69-13.846-50.001-25.457-53.585-6.365-1.965-12.363-3.002-18.006-3.036zm6.955 32.554a8.917 8.917 0 0 1 8.404 5.801 8.912 8.912 0 0 1-1.482 8.776c3.024 3.565 13.454 9.062 9.073 10.695l-8.716 3.25-8.717 3.251c-4.407 1.643-.096-9.406-.144-14.109a8.912 8.912 0 0 1-6.715-5.636 8.912 8.912 0 0 1 5.236-11.464 8.896 8.896 0 0 1 3.06-.564z"
         style="fill:#025;stroke:none;stroke-width:.290866px;stroke-linecap:butt;stroke-linejoin:miter;stroke-opacity:1"
         transform="rotate(4.466 147.865 536.174) scale(.36244)"
         id="path42" />
      <path
         transform="scale(.39844) rotate(4.467 918.137 1240.544)"
         style="fill:#025;stroke:none;stroke-width:.221799px;stroke-linecap:butt;stroke-linejoin:miter;stroke-opacity:1"
         d="M12.198 303.38c-3.794 15.118 15.246 53.85 19.02 75.69 1.02 5.902 28.28-.078 29.489-1.787 10.35-14.633 7.977-31.893 10.169-34.907 2.192-3.014 9.1 33.914 23.686 35.372 9.652.964 20.265 3.243 20.587-3.162 1.557-31.047 9.754-79.91.685-84.103-6.596-3.049-16.639.64-24.838 2.935-7.145 2 7.016 47.402-2.518 38.681-15.17-13.877-14.836-16.502-20.476-15.68-3.847.561-4.333 13.492-11.79 19.063-8.36 6.245-10.847-32.588-13.535-35.632-5.567-6.301-28.731-3.437-30.48 3.53z"
         id="path43" />
      <g
         style="fill:#025;stroke:none"
         id="g45">
        <path
           style="fill:#025;stroke:none;stroke-width:.171183px;stroke-linecap:butt;stroke-linejoin:miter;stroke-opacity:1"
           d="M239.19 366.82c-5.918 10.12 1.54 41.12.27 57.372-.344 4.392 22.26 4.926 23.543 3.918 7.1-33.785 2.128-46.717.85-58.442-.723-4.939-21.934-7.514-24.662-2.849z"
           transform="matrix(.39837 .00796 -.00732 .3664 21.85 -29.723)"
           id="path44" />
        <path
           style="fill:#025;stroke:none;stroke-width:.187459px;stroke-linecap:butt;stroke-linejoin:miter;stroke-opacity:1"
           d="M237.523 347.807c3.693-14.718 9.136-22.487 24.58-17.72 7.482 2.31 10.628 12.581 2.582 23.741-8.384 11.629-30.854 8.698-27.162-6.02z"
           transform="matrix(.39837 .00796 -.00732 .3664 21.85 -29.723)"
           id="path45" />
      </g>
      <path
         d="M217.168 360.837c5.277-16.552.437-58.908-1.567-83.578-.542-6.667-29.773-2.486-30.835-.426-7.838 15.205-1.145 35.406-3.69 38.588-2.545 3.183-13.691-40.345-28.736-43.167-9.957-1.868-20.797-5.281-21.695 1.837-4.352 34.504-17.179 88.336-8.113 93.756 6.594 3.943 17.366.652 26.097-1.234 7.61-1.644-3.128-53.451 6.024-42.941 8.492 12.915 16.641 28.326 30.497 38.601 5.237 7.486 29.586 6.192 32.018-1.436z"
         style="fill:#025;stroke:none;stroke-width:.23967px;stroke-linecap:butt;stroke-linejoin:miter;stroke-opacity:1"
         transform="rotate(4.466 147.865 536.174) scale(.36244)"
         id="path46" />
      <path
         style="fill:#025;stroke:none;stroke-width:.188966px;stroke-linecap:butt;stroke-linejoin:miter;stroke-opacity:1"
         d="M264.53 274.953c-.708 25.65-12 87.217-7.65 90.494 7.785 5.867 56.173 9.333 75.8 10.979 6.033-2.346 4.553-25.513-1.54-26.917-10.577-2.09-21.81-6.372-43.67-7.232.488-2.732.97-5.634 1.421-8.756 11.347 1.164 20.74 2.235 40.743 3.784 4.192.324 7.58-20.3 2.4-23.363-3.448-2.04-22.263-7.108-40.757-8.535.069-2.21.114-4.504.136-6.889 21.743-3.163 35.441 1.183 46.523 1.042 6.158-.258 9.445-20.76 3.642-23.85-11.889-3.777-75.076-13.437-77.049-.757z"
         transform="rotate(4.466 147.865 536.174) scale(.36244)"
         id="path47" />
      <path
         style="fill:#025;stroke:none;stroke-width:.615074px;stroke-linecap:butt;stroke-linejoin:miter;stroke-opacity:1"
         d="M75.461 404.121c-8.489 9.379-53.46-21.901-58.051 22.872-1.462 54.205 57.951 15.133 62.484 29.276 5.427 16.937-14.938 20.426-39.226 24.655-26.06 4.537-54.39-19.281-51.856-61.898 2.34-39.347 57.96-60.866 83.684-35.555 3.309 3.256 7.6 15.53 2.965 20.65z"
         transform="rotate(4.466 147.865 536.174) scale(.36244)"
         id="path48" />
      <path
         style="fill:#025;stroke:none;stroke-width:.23967px;stroke-linecap:butt;stroke-linejoin:miter;stroke-opacity:1"
         d="M274.418 455.619c3.958-16.916-4.197-58.76-8.135-83.196-1.064-6.604-29.876-.137-30.772 2-6.619 15.774 1.642 35.386-.645 38.759-2.287 3.373-16.82-39.144-32.041-40.775-10.073-1.079-21.148-3.629-21.484 3.538-1.625 34.74-10.179 89.413-.715 94.104 6.884 3.412 17.364-.716 25.92-3.283 7.455-2.237-7.322-53.04 2.627-43.282 9.483 12.207 18.818 26.93 33.439 36.084 5.809 7.051 29.981 3.846 31.806-3.95z"
         transform="rotate(4.466 147.865 536.174) scale(.36244)"
         id="path49" />
      <g
         style="fill:#025"
         id="g52">
        <path
           style="fill:#025;stroke:none;stroke-width:2.11463px;stroke-linecap:butt;stroke-linejoin:miter;stroke-opacity:1"
           d="M477.418 1047.602c-85.513.442-192.12 74.565-197.713 168.623-8.713 146.517 88.682 228.403 178.277 212.804 173.032-30.274 197.97-183.768 109.426-335.04-19.096-32.626-52.518-46.581-89.99-46.387zm-40.354 124.931a72.984 76.267 0 0 1 72.983 76.268 72.984 76.267 0 0 1-72.983 76.265 72.984 76.267 0 0 1-72.984-76.265 72.984 76.267 0 0 1 72.984-76.268z"
           transform="rotate(16.935 9.034 235.845) scale(.10542)"
           id="path50" />
        <path
           style="opacity:1;fill:#025;fill-opacity:1;stroke:none;stroke-width:1.52225;stroke-linecap:round;stroke-linejoin:miter;stroke-miterlimit:20.8;stroke-dasharray:none;stroke-dashoffset:0;stroke-opacity:1;paint-order:stroke fill markers"
           d="M440.346 1226.287a22.512 22.512 0 0 0-22.512 22.514 22.512 22.512 0 0 0 22.512 22.512 22.512 22.512 0 0 0 22.513-22.512 22.512 22.512 0 0 0-22.513-22.514zm-.504 6.266a13.094 13.094 0 0 1 13.094 13.093 13.094 13.094 0 0 1-13.094 13.094 13.094 13.094 0 0 1-13.094-13.094 13.094 13.094 0 0 1 13.094-13.093z"
           transform="rotate(16.935 9.034 235.845) scale(.10542)"
           id="path51" />
        <path
           style="fill:#025;fill-opacity:1;stroke:none;stroke-width:.224486px;stroke-linecap:butt;stroke-linejoin:miter;stroke-opacity:1"
           d="M116.097 420.046c-1.427-2.465-8.345 4.609-5.884 5.935l8.904 4.8c.831.448 2.511-1.173 2.015-2.03z"
           transform="rotate(16.938 97.375 250.404) scale(.36244)"
           id="path52" />
      </g>
    </g>
    <g
       style="fill:#fff"
       id="g64">
      <path
         style="fill:#fff;stroke:none;stroke-width:.290866px;stroke-linecap:butt;stroke-linejoin:miter;stroke-opacity:1"
         d="M-35.976 286.687c-15.603-.093-28.496 7.486-38.937 24.362-3.426 5.538 10.667 74.237 26.594 88.921 3.845 3.546 17.165-1.174 25.347-2.908 11.042-2.341-10.765-28.22-8.31-32.827 1.958-3.675 34.314-3.39 38.769-20.927 5.255-20.69-13.846-50.001-25.457-53.585-6.365-1.965-12.363-3.002-18.006-3.036zm6.955 32.554a8.917 8.917 0 0 1 8.404 5.801 8.912 8.912 0 0 1-1.482 8.776c3.024 3.565 13.454 9.062 9.073 10.695l-8.716 3.25-8.717 3.251c-4.407 1.643-.096-9.406-.144-14.109a8.912 8.912 0 0 1-6.715-5.636 8.912 8.912 0 0 1 5.236-11.464 8.896 8.896 0 0 1 3.06-.564z"
         transform="rotate(4.466 156.5 522.976) scale(.36244)"
         id="path53" />
      <path
         d="M12.198 303.38c-3.794 15.118 15.246 53.85 19.02 75.69 1.02 5.902 28.28-.078 29.489-1.787 10.35-14.633 7.977-31.893 10.169-34.907 2.192-3.014 9.1 33.914 23.686 35.372 9.652.964 20.265 3.243 20.587-3.162 1.557-31.047 9.754-79.91.685-84.103-6.596-3.049-16.639.64-24.838 2.935-7.145 2 7.016 47.402-2.518 38.681-15.17-13.877-14.836-16.502-20.476-15.68-3.847.561-4.333 13.492-11.79 19.063-8.36 6.245-10.847-32.588-13.535-35.632-5.567-6.301-28.731-3.437-30.48 3.53z"
         style="fill:#fff;stroke:none;stroke-width:.221799px;stroke-linecap:butt;stroke-linejoin:miter;stroke-opacity:1"
         transform="scale(.39844) rotate(4.467 939.81 1207.42)"
         id="path54" />
      <g
         style="fill:#fff;stroke:none"
         id="g56">
        <path
           d="M239.19 366.82c-5.918 10.12 1.54 41.12.27 57.372-.344 4.392 22.26 4.926 23.543 3.918 7.1-33.785 2.128-46.717.85-58.442-.723-4.939-21.934-7.514-24.662-2.849z"
           style="fill:#fff;stroke:none;stroke-width:.171183px;stroke-linecap:butt;stroke-linejoin:miter;stroke-opacity:1"
           transform="matrix(.39837 .00796 -.00732 .3664 20.848 -30.435)"
           id="path55" />
        <path
           d="M237.523 347.807c3.693-14.718 9.136-22.487 24.58-17.72 7.482 2.31 10.628 12.581 2.582 23.741-8.384 11.629-30.854 8.698-27.162-6.02z"
           style="fill:#fff;stroke:none;stroke-width:.187459px;stroke-linecap:butt;stroke-linejoin:miter;stroke-opacity:1"
           transform="matrix(.39837 .00796 -.00732 .3664 20.848 -30.435)"
           id="path56" />
      </g>
      <path
         style="fill:#fff;stroke:none;stroke-width:.23967px;stroke-linecap:butt;stroke-linejoin:miter;stroke-opacity:1"
         d="M217.168 360.837c5.277-16.552.437-58.908-1.567-83.578-.542-6.667-29.773-2.486-30.835-.426-7.838 15.205-1.145 35.406-3.69 38.588-2.545 3.183-13.691-40.345-28.736-43.167-9.957-1.868-20.797-5.281-21.695 1.837-4.352 34.504-17.179 88.336-8.113 93.756 6.594 3.943 17.366.652 26.097-1.234 7.61-1.644-3.128-53.451 6.024-42.941 8.492 12.915 16.641 28.326 30.497 38.601 5.237 7.486 29.586 6.192 32.018-1.436z"
         transform="rotate(4.466 156.5 522.976) scale(.36244)"
         id="path57" />
      <path
         d="M264.53 274.953c-.708 25.65-12 87.217-7.65 90.494 7.785 5.867 56.173 9.333 75.8 10.979 6.033-2.346 4.553-25.513-1.54-26.917-10.577-2.09-21.81-6.372-43.67-7.232.488-2.732.97-5.634 1.421-8.756 11.347 1.164 20.74 2.235 40.743 3.784 4.192.324 7.58-20.3 2.4-23.363-3.448-2.04-22.263-7.108-40.757-8.535.069-2.21.114-4.504.136-6.889 21.743-3.163 35.441 1.183 46.523 1.042 6.158-.258 9.445-20.76 3.642-23.85-11.889-3.777-75.076-13.437-77.049-.757z"
         style="fill:#fff;stroke:none;stroke-width:.188966px;stroke-linecap:butt;stroke-linejoin:miter;stroke-opacity:1"
         transform="rotate(4.466 156.5 522.976) scale(.36244)"
         id="path58" />
      <path
         d="M75.461 404.121c-8.489 9.379-53.46-21.901-58.051 22.872-1.462 54.205 57.951 15.133 62.484 29.276 5.427 16.937-14.938 20.426-39.226 24.655-26.06 4.537-54.39-19.281-51.856-61.898 2.34-39.347 57.96-60.866 83.684-35.555 3.309 3.256 7.6 15.53 2.965 20.65z"
         style="fill:#fff;stroke:none;stroke-width:.615074px;stroke-linecap:butt;stroke-linejoin:miter;stroke-opacity:1"
         transform="rotate(4.466 156.5 522.976) scale(.36244)"
         id="path59" />
      <path
         d="M274.418 455.619c3.958-16.916-4.197-58.76-8.135-83.196-1.064-6.604-29.876-.137-30.772 2-6.619 15.774 1.642 35.386-.645 38.759-2.287 3.373-16.82-39.144-32.041-40.775-10.073-1.079-21.148-3.629-21.484 3.538-1.625 34.74-10.179 89.413-.715 94.104 6.884 3.412 17.364-.716 25.92-3.283 7.455-2.237-7.322-53.04 2.627-43.282 9.483 12.207 18.818 26.93 33.439 36.084 5.809 7.051 29.981 3.846 31.806-3.95z"
         style="fill:#fff;stroke:none;stroke-width:.23967px;stroke-linecap:butt;stroke-linejoin:miter;stroke-opacity:1"
         transform="rotate(4.466 156.5 522.976) scale(.36244)"
         id="path60" />
      <g
         style="fill:#fff"
         id="g63">
        <path
           transform="rotate(16.935 10.926 232.125) scale(.10542)"
           d="M477.418 1047.602c-85.513.442-192.12 74.565-197.713 168.623-8.713 146.517 88.682 228.403 178.277 212.804 173.032-30.274 197.97-183.768 109.426-335.04-19.096-32.626-52.518-46.581-89.99-46.387zm-40.354 124.931a72.984 76.267 0 0 1 72.983 76.268 72.984 76.267 0 0 1-72.983 76.265 72.984 76.267 0 0 1-72.984-76.265 72.984 76.267 0 0 1 72.984-76.268z"
           style="fill:#fff;stroke:none;stroke-width:2.11463px;stroke-linecap:butt;stroke-linejoin:miter;stroke-opacity:1"
           id="path61" />
        <path
           transform="rotate(16.935 10.926 232.125) scale(.10542)"
           d="M440.346 1226.287a22.512 22.512 0 0 0-22.512 22.514 22.512 22.512 0 0 0 22.512 22.512 22.512 22.512 0 0 0 22.513-22.512 22.512 22.512 0 0 0-22.513-22.514zm-.504 6.266a13.094 13.094 0 0 1 13.094 13.093 13.094 13.094 0 0 1-13.094 13.094 13.094 13.094 0 0 1-13.094-13.094 13.094 13.094 0 0 1 13.094-13.093z"
           style="opacity:1;fill:#fff;fill-opacity:1;stroke:none;stroke-width:1.52225;stroke-linecap:round;stroke-linejoin:miter;stroke-miterlimit:20.8;stroke-dasharray:none;stroke-dashoffset:0;stroke-opacity:1;paint-order:stroke fill markers"
           id="path62" />
        <path
           d="M116.097 420.046c-1.427-2.465-8.345 4.609-5.884 5.935l8.904 4.8c.831.448 2.511-1.173 2.015-2.03z"
           style="fill:#fff;fill-opacity:1;stroke:none;stroke-width:.224486px;stroke-linecap:butt;stroke-linejoin:miter;stroke-opacity:1"
           transform="rotate(16.938 99.267 246.684) scale(.36244)"
           id="path63" />
      </g>
    </g>
    <g
       id="g66">
      <path
         id="path69"
         style="display:inline;fill:#0193cf;fill-opacity:1;stroke:none;stroke-width:0.576828;stroke-linecap:butt;stroke-linejoin:miter;stroke-miterlimit:15;stroke-dasharray:none;stroke-opacity:1;paint-order:stroke fill markers"
         inkscape:label="year-bg"
         d="m 31.073445,68.284308 c -3.203055,0.232896 -5.91756,2.584905 -7.176877,5.453982 -1.146541,2.392675 -1.627548,5.051561 -1.741092,7.686643 -0.457983,-0.0788 -1.024898,-0.0093 -1.421875,0 1.598219,-1.992664 2.371266,-4.74794 1.528943,-7.222957 -0.563913,-2.050102 -2.119452,-3.852462 -4.209043,-4.419977 -3.207832,-1.073259 -6.710143,-0.67878 -9.9214924,0.163425 -1.6206313,0.412188 -3.2257749,1.47716 -3.6528566,3.18351 -0.6967056,2.411912 1.4731545,5.306283 4.0513239,4.920999 1.9836541,-0.113979 3.6340581,-1.577579 5.6250001,-1.582031 0.709635,0.267076 0.863412,1.35935 0.147448,1.727808 -2.251971,1.965275 -5.4048105,2.486998 -7.6566121,4.455218 -0.9142168,0.754508 -1.1323422,1.949453 -1.2724808,3.059118 -0.2905405,1.353383 -0.3464544,3.175204 1.0186976,3.973768 1.1273796,0.618504 2.4251625,0.360849 3.6325193,0.569999 3.844234,0.27501 7.747771,0.550344 11.570041,-0.07635 0.843909,-0.172536 1.727216,-0.439449 2.347496,-1.068931 2.426817,2.543974 6.482643,2.761766 9.56762,1.387729 1.614501,-0.697136 3.045897,-1.818571 4.09449,-3.231479 0.134565,1.168038 1.176719,2.028786 2.327618,2.085633 4.581651,0.353947 9.300262,0.846805 13.911877,0.144833 1.404491,-0.201182 2.982295,-1.02487 3.190219,-2.574227 0.357411,-1.730071 -0.201108,-3.486814 -0.709011,-5.121083 -0.645703,-1.146349 -2.12411,-1.229901 -3.283203,-1.060547 0.642117,-0.813351 1.170443,-1.721294 1.507812,-2.703125 0.553231,1.413674 0.995914,3.033484 2.248047,4 1.780274,1.298326 4.127804,0.971813 6.119141,0.4375 0.731892,-0.376875 0.804518,-0.0068 0.617187,0.65625 -0.154978,1.795315 -0.33772,3.731215 0.429687,5.416016 0.832188,1.245953 2.542053,1.551104 3.933662,1.365507 1.394305,-0.303017 2.669318,-1.480193 2.906743,-2.897138 0.0371,-1.820814 -0.437362,-3.678268 -0.455639,-5.43126 0.547712,-0.610216 1.348203,-1.099233 1.419922,-2.003906 0.321417,-1.284031 -0.247638,-2.906241 -1.603516,-3.306641 -0.605188,-0.920818 -0.381835,-2.112626 -0.513672,-3.160156 -9.54e-4,-1.334404 -0.03862,-2.976162 -1.341796,-3.738281 -1.708687,-1.182949 -4.458316,-0.512391 -5.164063,1.523437 -0.713843,1.662642 0.02841,3.490511 -0.378906,5.197266 -0.619774,0.332969 -1.423285,-0.176718 -1.34434,-0.889389 -0.426811,-1.85827 -0.286044,-3.946104 -1.350333,-5.5963 -1.335036,-1.466769 -3.719315,-1.224903 -5.26228,-0.233608 -0.658872,0.46314 -1.049421,1.22156 -1.216875,1.994688 -1.342291,-2.015522 -3.863366,-2.688165 -6.142729,-2.889741 -2.716019,-0.17668 -5.491784,0.196164 -8.046724,1.135834 -0.594995,0.257092 -1.15757,0.607345 -1.605469,1.080079 -1.653237,-1.919516 -4.275105,-2.585872 -6.724609,-2.41211 z m 15.429687,7.47461 c 0.70308,0.290868 0.846939,1.39363 0.118146,1.74984 -1.970476,1.67567 -4.483954,2.285259 -6.641583,3.685707 0.232944,-1.266498 0.336072,-2.55903 0.265624,-3.845704 2.236706,0.186701 4.074156,-1.567639 6.257813,-1.589843 z M 32.210163,77.23548 c 1.207694,0.558988 1.270246,2.198587 0.933594,3.320313 -0.25528,0.848356 -1.016396,1.958582 -2.024182,1.627569 -1.238026,-0.773619 -1.146205,-2.58964 -0.600159,-3.768332 0.296418,-0.629336 0.921018,-1.345235 1.690747,-1.17955 z" />
      <path
         style="display:inline;fill:#002255;fill-opacity:1;stroke:none;stroke-width:0.576828;stroke-linecap:butt;stroke-linejoin:miter;stroke-miterlimit:15;stroke-dasharray:none;stroke-opacity:1;paint-order:stroke fill markers"
         d="m 31.545113,69.897567 c -0.111981,0.0012 -0.223916,0.0051 -0.335708,0.01166 -5.425162,0.329046 -8.164233,6.802063 -7.600513,14.946776 0.141416,2.044007 1.18685,3.447377 2.653774,4.222162 3.346947,1.76793 8.882409,0.263657 10.842483,-4.35925 3.053147,-7.202 0.767329,-13.367395 -3.019681,-14.457148 -0.771855,-0.221124 -1.504255,-0.338976 -2.197312,-0.361177 -0.11431,-0.0036 -0.228687,-0.0046 -0.343043,-0.003 z m 14.594639,0.169393 c -0.593806,-0.004 -1.187451,0.02094 -1.778834,0.07466 -2.421581,0.215917 -4.584122,0.859021 -5.230427,1.3796 -1.747752,1.407253 -0.92052,3.336707 0.147364,4.031744 2.354692,1.532863 7.198079,-3.950531 9.066414,0.257053 1.868335,4.207583 -8.594571,5.651967 -9.018286,8.255093 -0.280112,1.722838 -0.822587,3.604237 0.406714,3.729426 5.961468,0.606881 14.491651,0.964532 15.388014,-0.61955 0.651359,-1.151757 0.04018,-2.993984 -0.321103,-4.490322 -0.314902,-1.303491 -7.649002,1.375485 -5.876694,-0.244406 3.120692,-2.507071 5.679095,-5.57712 3.389013,-9.849823 -1.053288,-1.868582 -3.588178,-2.501162 -6.172175,-2.523472 z m 21.676986,1.570258 c 0.09002,-1.337297 -3.385501,-2.177113 -3.55821,0.807341 -0.127817,1.347753 0.435256,3.670278 -0.416677,4.745246 -0.757509,0.955826 -2.887738,0.827945 -3.739433,-0.362115 -0.649961,-0.908177 -0.700903,-5.02558 -1.388318,-6.143603 -0.524999,-0.722983 -2.53099,-0.556265 -3.306717,0.158989 -1.023363,1.063226 -0.547904,4.632367 1.320431,8.839951 1.868335,4.207584 8.885636,-0.942219 8.461921,1.660907 -0.280111,1.722838 -0.730154,6.280696 0.406714,6.764828 0.196247,0.08357 0.382767,0.211591 0.583555,0.213821 1.566216,0.01739 2.462138,0.169798 2.872191,-1.252047 0.564455,-1.957229 -0.368217,-3.628995 -0.5191,-5.298384 -0.03991,-0.441394 0.220285,-0.862095 0.477994,-1.271363 0.153447,-0.243687 0.813367,-0.619983 0.936686,-0.878768 0.199839,-0.419355 0.21925,-1.367493 -0.146396,-1.623283 -0.451022,-0.315491 -0.382224,-0.05836 -0.699713,-0.306188 -1.374328,-1.072762 -1.045701,-3.26458 -1.284904,-6.055334 z M 13.803933,70.773036 c -0.593809,-0.0041 -1.187467,0.02063 -1.778871,0.07418 -2.4215824,0.215916 -4.5841236,0.85902 -5.2309022,1.379636 -1.7472785,1.407216 -0.920994,3.336744 0.1468901,4.031781 2.3546916,1.532862 7.1976071,-3.950495 9.0659421,0.257089 1.868808,4.207547 -8.5931149,5.652331 -9.0168293,8.255457 -0.2805857,1.722875 -0.8230979,3.6038 0.4066771,3.728952 5.9609592,0.606444 14.4917262,0.96548 15.3876142,-0.618565 0.651797,-1.152268 0.04015,-2.994458 -0.320629,-4.490359 -0.315412,-1.303928 -7.649585,1.3741 -5.877277,-0.245791 3.120729,-2.506597 5.679132,-5.576646 3.389524,-9.849386 -1.053289,-1.868581 -3.588616,-2.500651 -6.172139,-2.522997 z m 18.007546,4.873511 c 0.406874,-0.0015 0.807621,0.09912 1.165496,0.292708 1.57334,0.843793 2.216621,3.249005 1.436791,5.371899 -0.779867,2.122421 -2.687867,3.15921 -4.261682,2.315453 -1.573851,-0.84423 -2.217131,-3.249442 -1.437265,-5.371862 0.531796,-1.446222 1.619195,-2.446714 2.815314,-2.59025 0.0945,-0.01112 0.187938,-0.0174 0.281346,-0.01795 z"
         id="path70"
         inkscape:label="year-shadow"
         sodipodi:nodetypes="ccccccccccccsccccccccccsccscccsssssscccccccccccccccccccccccsc" />
      <path
         style="display:inline;fill:#ffffff;fill-opacity:1;stroke:none;stroke-width:1.21344;stroke-linecap:butt;stroke-linejoin:miter;stroke-miterlimit:15;stroke-dasharray:none;stroke-opacity:1;paint-order:stroke fill markers"
         d="m 71.876,-38.055 c -0.235056,-0.01572 -0.470458,-0.02572 -0.706,-0.03 -11.432,-0.19 -18.227,12.942 -18.366,30.116 -0.035,4.31 1.93,7.423 4.881,9.286 6.733,4.251 18.587,1.994 23.448,-7.384 7.572,-14.61 3.778,-27.912 -3.988,-30.812 -1.583,-0.589 -3.1,-0.955 -4.55,-1.114 -0.239172,-0.02605 -0.478899,-0.04672 -0.719,-0.062 z m 30.583,2.723 c -1.24479,-0.10468 -2.493931,-0.148732 -3.743,-0.132 -5.114,0.06 -9.754,1.058 -11.194,2.045 -3.894,2.668 -2.472,6.849 -0.345,8.48 4.69,3.597 15.738,-7.118 18.974,2.01 3.236,9.128 -18.943,10.46 -20.254,15.851 -0.867,3.568 -2.31,7.426 0.248,7.888 12.405,2.24 30.238,4.374 32.375,1.197 1.553,-2.31 0.57,-6.273 0.055,-9.47 -0.449,-2.785 -16.266,1.644 -12.286,-1.466 6.952,-4.752 12.816,-10.776 8.706,-20.109 -1.906,-4.09 -7.12,-5.828 -12.536,-6.294 z m 45.2101,6.810128 c 0.40575,-2.790216 -6.74748,-5.115468 -7.59389,1.116043 -0.48673,2.806013 0.31746,7.768575 -1.64376,9.884978 -1.74385,1.881837 -6.191,1.268032 -7.78426,-1.366148 -1.21588,-2.010234 -0.65475,-10.654252 -1.91514,-13.11069 -0.98383,-1.601541 -5.2182,-1.577307 -6.96123,-0.202995 -2.31887,2.063965 -1.90068,9.626939 1.33532,18.754939 3.236,9.1280004 18.7894,-0.534654 17.4784,4.8563459 -0.867,3.5679996 -2.41209,13.7579652 -0.32855,14.506346 0.62629,0.3011585 1.07985,0.4102956 1.48225,0.4433617 2.71504,0.2230999 4.16279,0.4763862 6.0183,-2.3122402 1.959,-3.24576852 -0.18355,-7.6711129 -0.22918,-11.1969314 -0.0121,-0.9322461 0.60188,-1.7724031 1.20879,-2.5889833 0.36137,-0.4862117 1.80652,-1.1683857 2.10715,-1.6911487 0.48717,-0.847126 0.50389,-2.665939 -0.0437,-3.428389 -0.38728,-0.539233 -0.67431,-0.487553 -0.88496,-0.538279 -0.1156,-0.02784 -0.31123,-0.01501 -0.53293,-0.21743 -2.70845,-2.472948 -1.66361,-7.016706 -1.71256,-12.908779 z M 34.524,-39.097 c -1.244772,-0.104995 -2.493915,-0.14938 -3.743,-0.133 -5.114,0.06 -9.754,1.058 -11.195,2.045 -3.893,2.668 -2.473,6.849 -0.346,8.48 4.69,3.597 15.737,-7.118 18.973,2.01 3.237,9.128 -18.94,10.461 -20.251,15.852 -0.868,3.568 -2.311,7.425 0.248,7.887 12.404,2.239 30.238,4.376 32.374,1.199 1.554,-2.311 0.57,-6.274 0.056,-9.47 -0.45,-2.786 -16.267,1.641 -12.287,-1.469 6.952,-4.751 12.816,-10.775 8.707,-20.108 -1.906,-4.09 -7.121,-5.827 -12.536,-6.293 z m 36.978,13.143 c 0.853617,0.06282 1.677807,0.338922 2.397,0.803 3.163,2.025 4.122,7.174 2.142,11.5 -1.98,4.325 -6.15,6.19 -9.314,4.165 -3.164,-2.026 -4.123,-7.175 -2.143,-11.5 1.35,-2.947 3.793,-4.869 6.325,-4.976 0.2,-0.008 0.397,-0.006 0.593,0.008 z"
         id="path66"
         inkscape:label="path66"
         sodipodi:nodetypes="ccccccccccccscccccccccssccsccscssssssccccccccccccccccccccc"
         transform="matrix(0.47395,-0.03666,0.03666,0.47395,-1.917,89.912)" />
    </g>
  </g>
</svg>
