<?xml version="1.0" encoding="UTF-8" standalone="no"?>
<svg
   height="19.999998"
   width="17.142857"
   version="1.1"
   id="svg10"
   xmlns="http://www.w3.org/2000/svg"
   xmlns:svg="http://www.w3.org/2000/svg">
  <defs
     id="defs10" />
  <g
     transform="matrix(0.95238095,0,0,0.95238095,-2.8571428,-980.38095)"
     id="g10">
    <path
       d="m 5,1032.4 c -1.1046,0 -2,0.9 -2,2 v 14 c 0,1.1 0.8954,2 2,2 h 6 2 6 c 1.105,0 2,-0.9 2,-2 v -14 c 0,-1.1 -0.895,-2 -2,-2 h -6 -2 z"
       fill="#bdc3c7"
       id="path1" />
    <path
       d="M 5,3 C 3.8954,3 3,3.8954 3,5 v 14 c 0,1.105 0.8954,2 2,2 h 6 2 6 c 1.105,0 2,-0.895 2,-2 V 5 C 21,3.8954 20.105,3 19,3 h -6 -2 z"
       fill="#ecf0f1"
       transform="translate(0,1028.4)"
       id="path2" />
    <path
       d="M 5,3 C 3.8954,3 3,3.8954 3,5 V 8 9 H 21 V 8 5 C 21,3.8954 20.105,3 19,3 h -6 -2 z"
       fill="#e74c3c"
       transform="translate(0,1028.4)"
       id="path3" />
    <path
       d="m 7,5.5 a 1.5,1.5 0 1 1 -3,0 1.5,1.5 0 1 1 3,0 z"
       fill="#c0392b"
       transform="translate(0.5,1028.4)"
       id="path4" />
    <path
       d="m 7,5.5 a 1.5,1.5 0 1 1 -3,0 1.5,1.5 0 1 1 3,0 z"
       fill="#c0392b"
       transform="translate(12.5,1028.4)"
       id="path5" />
    <g
       fill="#bdc3c7"
       id="g8">
      <path
         d="m 5,1039.4 v 2 h 2 v -2 z m 3,0 v 2 h 2 v -2 z m 3,0 v 2 h 2 v -2 z m 3,0 v 2 h 2 v -2 z m 3,0 v 2 h 2 v -2 z"
         id="path6" />
      <path
         d="m 5,1042.4 v 2 h 2 v -2 z m 3,0 v 2 h 2 v -2 z m 3,0 v 2 h 2 v -2 z m 3,0 v 2 h 2 v -2 z m 3,0 v 2 h 2 v -2 z"
         id="path7" />
      <path
         d="m 5,1045.4 v 2 h 2 v -2 z m 3,0 v 2 h 2 v -2 z m 3,0 v 2 h 2 v -2 z m 3,0 v 2 h 2 v -2 z m 3,0 v 2 h 2 v -2 z"
         id="path8" />
    </g>
    <path
       d="M 6,1 C 5.4477,1 5,1.4477 5,2 V 5 C 5,5.5523 5.4477,6 6,6 6.5523,6 7,5.5523 7,5 V 2 C 7,1.4477 6.5523,1 6,1 Z m 12,0 c -0.552,0 -1,0.4477 -1,1 v 3 c 0,0.5523 0.448,1 1,1 0.552,0 1,-0.4477 1,-1 V 2 C 19,1.4477 18.552,1 18,1 Z"
       fill="#95a5a6"
       transform="translate(0,1028.4)"
       id="path9" />
    <path
       d="m 6,1029.4 c -0.5523,0 -1,0.4 -1,1 v 2 h 2 v -2 c 0,-0.6 -0.4477,-1 -1,-1 z m 12,0 c -0.552,0 -1,0.4 -1,1 v 2 h 2 v -2 c 0,-0.6 -0.448,-1 -1,-1 z"
       fill="#bdc3c7"
       id="path10" />
  </g>
</svg>
