<?xml version="1.0" encoding="UTF-8" standalone="no"?>
<svg
   version="1.1"
   id="svg7"
   width="20"
   height="20"
   xmlns="http://www.w3.org/2000/svg"
   xmlns:svg="http://www.w3.org/2000/svg">
  <defs
     id="defs7" />
  <path
     d="M 3.90625,13.28125 H 6.7968747 V 6.7968747 H 13.28125 V 3.90625 H 5.3515624 q -1.4453124,0 -1.4453124,1.3671876"
     fill="#4285f4"
     id="path1"
     style="stroke-width:0.0390625" />
  <path
     d="M 13.203125,3.90625 V 6.875 H 16.09375 V 5.2734376 q 0,-1.3671876 -1.367187,-1.3671876"
     fill="#1967d2"
     id="path2"
     style="stroke-width:0.0390625" />
  <path
     d="M 13.203125,6.7968747 H 16.09375 V 13.203125 H 13.203125"
     fill="#fbbc04"
     id="path3"
     style="stroke-width:0.0390625" />
  <path
     d="m 3.90625,13.203125 v 1.523438 q 0,1.367187 1.3671876,1.367187 H 6.875 v -2.890625"
     fill="#188038"
     id="path4"
     style="stroke-width:0.0390625" />
  <path
     d="M 6.7968747,13.203125 H 13.203125 V 16.09375 H 6.7968747"
     fill="#34a853"
     id="path5"
     style="stroke-width:0.0390625" />
  <path
     d="M 13.203125,16.09375 V 13.203125 H 16.09375"
     fill="#ea4335"
     id="path6"
     style="stroke-width:0.0390625" />
  <path
     d="M 7.96875,8.9453127 A 0.97656253,0.859375 1 1 1 8.9453127,10 H 8.59375 8.9453127 A 0.97656253,0.859375 1 1 1 7.96875,11.054687 M 10.546875,9.0234373 11.601563,8.28125 h 0.15625 V 8.0078127 12.03125"
     fill="none"
     stroke="#4285f4"
     stroke-linejoin="bevel"
     stroke-width="0.585936"
     id="path7" />
</svg>
