<?xml version="1.0" encoding="UTF-8" standalone="no"?>
<svg
   version="1.1"
   id="svg7"
   width="20"
   height="20"
   xmlns="http://www.w3.org/2000/svg"
   xmlns:svg="http://www.w3.org/2000/svg">
  <defs
     id="defs7" />
  <path
     d="M 3.90625,19.290865 H 8.6498393 V 8.6498393 H 19.290865 V 3.90625 H 6.2780447 q -2.3717947,0 -2.3717947,2.2435899"
     fill="#4285f4"
     id="path1"
     style="stroke-width:0.0641026" />
  <path
     d="m 19.16266,3.90625 v 4.8717949 h 4.74359 v -2.628205 q 0,-2.2435899 -2.243589,-2.2435899"
     fill="#1967d2"
     id="path2"
     style="stroke-width:0.0641026" />
  <path
     d="m 19.16266,8.6498393 h 4.74359 V 19.16266 h -4.74359"
     fill="#fbbc04"
     id="path3"
     style="stroke-width:0.0641026" />
  <path
     d="m 3.90625,19.16266 v 2.500001 q 0,2.243589 2.2435899,2.243589 h 2.628205 v -4.74359"
     fill="#188038"
     id="path4"
     style="stroke-width:0.0641026" />
  <path
     d="M 8.6498393,19.16266 H 19.16266 v 4.74359 H 8.6498393"
     fill="#34a853"
     id="path5"
     style="stroke-width:0.0641026" />
  <path
     d="m 19.16266,23.90625 v -4.74359 h 4.74359"
     fill="#ea4335"
     id="path6"
     style="stroke-width:0.0641026" />
  <path
     d="m 10.572917,12.175481 a 1.6025642,1.4102564 1 1 1 1.602564,1.730769 h -0.576923 0.576923 a 1.6025642,1.4102564 1 1 1 -1.602564,1.730768 m 4.230769,-3.333332 1.73077,-1.217949 h 0.25641 v -0.448717 6.602563"
     fill="none"
     stroke="#4285f4"
     stroke-linejoin="bevel"
     stroke-width="0.961536"
     id="path7" />
</svg>
