<?xml version="1.0" encoding="UTF-8" standalone="no"?>
<svg
   version="1.1"
   id="svg7"
   width="20"
   height="20"
   xmlns="http://www.w3.org/2000/svg"
   xmlns:svg="http://www.w3.org/2000/svg">
  <defs
     id="defs7" />
  <path
     d="M 0.00794492,15.39256 H 4.7515342 V 4.7515342 H 15.39256 V 0.00794492 H 2.3797396 q -2.37179468,0 -2.37179468,2.24358988"
     fill="#4285f4"
     id="path1"
     style="stroke-width:0.0641026" />
  <path
     d="M 15.264355,0.00794492 V 4.8797398 h 4.74359 v -2.628205 q 0,-2.24358988 -2.243589,-2.24358988"
     fill="#1967d2"
     id="path2"
     style="stroke-width:0.0641026" />
  <path
     d="m 15.264355,4.7515342 h 4.74359 V 15.264355 h -4.74359"
     fill="#fbbc04"
     id="path3"
     style="stroke-width:0.0641026" />
  <path
     d="m 0.00794492,15.264355 v 2.500001 q 0,2.243589 2.24358988,2.243589 h 2.628205 v -4.74359"
     fill="#188038"
     id="path4"
     style="stroke-width:0.0641026" />
  <path
     d="M 4.7515342,15.264355 H 15.264355 v 4.74359 H 4.7515342"
     fill="#34a853"
     id="path5"
     style="stroke-width:0.0641026" />
  <path
     d="m 15.264355,20.007945 v -4.74359 h 4.74359"
     fill="#ea4335"
     id="path6"
     style="stroke-width:0.0641026" />
  <path
     d="m 6.6746119,8.2771759 a 1.6025642,1.4102564 1 1 1 1.602564,1.7307691 h -0.576923 0.576923 a 1.6025642,1.4102564 1 1 1 -1.602564,1.730768 m 4.2307691,-3.3333321 1.73077,-1.217949 h 0.25641 v -0.448717 6.6025631"
     fill="none"
     stroke="#4285f4"
     stroke-linejoin="bevel"
     stroke-width="0.961536"
     id="path7" />
</svg>
